<?xml version="1.0" encoding="UTF-8"?>
<!-- Generator: visioncortex VTracer 0.6.3 -->
<svg version="1.1" xmlns="http://www.w3.org/2000/svg" width="1280" height="720">
<path d="M0 0 C1.57 0 1.57 0 3.18 0 C4.99 -0.01 4.99 -0.01 6.84 -0.01 C8.2 -0.01 9.55 -0 10.9 0 C12.33 0 13.76 -0 15.19 -0.01 C19.13 -0.01 23.07 -0.01 27 0 C31.25 0.01 35.49 0 39.73 0 C48.04 -0 56.36 0 64.68 0.01 C74.35 0.02 84.02 0.02 93.7 0.02 C110.95 0.02 128.2 0.03 145.46 0.04 C162.22 0.06 178.98 0.06 195.74 0.06 C197.29 0.06 197.29 0.06 198.87 0.06 C199.9 0.06 200.93 0.06 201.99 0.06 C221.05 0.06 240.1 0.07 259.16 0.08 C265.91 0.08 272.66 0.08 279.41 0.08 C287.63 0.08 295.85 0.09 304.07 0.1 C308.27 0.1 312.47 0.1 316.67 0.1 C320.51 0.1 324.34 0.11 328.18 0.11 C329.58 0.11 330.97 0.12 332.36 0.11 C334.25 0.11 336.13 0.12 338.01 0.12 C339.59 0.12 339.59 0.12 341.19 0.12 C343.53 0.25 343.53 0.25 344.53 1.25 C344.63 3.12 344.66 4.99 344.66 6.85 C344.66 8.08 344.66 9.3 344.66 10.57 C344.66 11.94 344.66 13.32 344.65 14.7 C344.65 16.14 344.66 17.59 344.66 19.04 C344.66 23.04 344.66 27.04 344.65 31.04 C344.65 35.35 344.65 39.65 344.65 43.96 C344.65 51.43 344.65 58.89 344.64 66.36 C344.63 77.16 344.63 87.95 344.63 98.75 C344.63 116.26 344.62 133.77 344.61 151.29 C344.6 168.31 344.59 185.32 344.59 202.34 C344.59 203.91 344.59 203.91 344.59 205.52 C344.59 210.78 344.59 216.03 344.58 221.29 C344.57 264.94 344.56 308.6 344.53 352.25 C300.22 352.27 255.9 352.29 211.59 352.3 C206.36 352.3 201.13 352.3 195.91 352.3 C194.35 352.3 194.35 352.3 192.75 352.31 C175.88 352.31 159.01 352.32 142.14 352.33 C124.85 352.34 107.55 352.34 90.25 352.34 C79.57 352.35 68.89 352.35 58.2 352.36 C50.89 352.36 43.58 352.36 36.26 352.36 C32.03 352.36 27.81 352.36 23.58 352.37 C19.72 352.37 15.85 352.37 11.99 352.37 C10.59 352.37 9.18 352.37 7.78 352.37 C5.88 352.38 3.99 352.38 2.09 352.37 C0.51 352.37 0.51 352.37 -1.11 352.37 C-3.47 352.25 -3.47 352.25 -4.47 351.25 C-4.57 349.4 -4.59 347.54 -4.59 345.68 C-4.6 344.47 -4.6 343.25 -4.6 342 C-4.6 340.63 -4.6 339.26 -4.6 337.89 C-4.6 336.45 -4.6 335.02 -4.61 333.58 C-4.61 329.6 -4.61 325.63 -4.61 321.66 C-4.61 317.38 -4.62 313.1 -4.62 308.82 C-4.63 300.44 -4.63 292.05 -4.63 283.66 C-4.63 276.85 -4.64 270.03 -4.64 263.22 C-4.65 243.92 -4.65 224.63 -4.65 205.33 C-4.65 204.29 -4.65 203.25 -4.65 202.18 C-4.65 201.13 -4.65 200.09 -4.65 199.02 C-4.65 182.11 -4.66 165.2 -4.67 148.3 C-4.69 130.96 -4.7 113.63 -4.69 96.29 C-4.69 86.55 -4.7 76.81 -4.71 67.06 C-4.72 58.77 -4.72 50.48 -4.71 42.18 C-4.71 37.95 -4.71 33.71 -4.72 29.48 C-4.73 25.61 -4.72 21.74 -4.72 17.86 C-4.71 16.46 -4.72 15.05 -4.72 13.65 C-4.73 11.75 -4.72 9.84 -4.71 7.94 C-4.71 6.88 -4.72 5.83 -4.72 4.73 C-4.37 1.27 -3.46 0.35 0 0 Z M106.91 107.47 C87.52 130.14 80.98 160.02 83.07 189.21 C85.13 213.14 93.91 237.9 112.66 253.81 C140.5 275.46 173.51 280.85 208.29 276.53 C221.51 274.51 234.59 270.22 246.53 264.25 C246.86 252.04 247.19 239.83 247.53 227.25 C241.89 228.17 241.89 228.17 237.22 230.5 C215.05 242.02 187.47 243.39 163.78 236.44 C150.72 231.84 140.72 222.45 134.78 210.12 C126.91 192.66 125.3 170.53 131.53 152.25 C138.02 135.68 145.95 125.34 162.6 117.94 C183.81 109.32 206.44 111.01 227.53 119.25 C231.05 120.81 234.5 122.48 237.92 124.21 C240.58 125.59 240.58 125.59 243.53 124.25 C243.68 119.34 243.79 114.43 243.86 109.52 C243.89 107.85 243.93 106.17 243.99 104.5 C244.06 102.1 244.09 99.7 244.12 97.3 C244.15 96.55 244.18 95.81 244.21 95.04 C244.28 92.64 244.28 92.64 243.53 89.25 C240.46 86.6 237.34 84.93 233.5 83.65 C232.78 83.41 232.06 83.17 231.32 82.92 C230.56 82.68 229.81 82.43 229.03 82.19 C228.24 81.93 227.46 81.67 226.64 81.41 C185.19 68.24 137.82 75.32 106.91 107.47 Z " fill="#b08e64" transform="translate(906.4658084511757,181.7504523396492)"/>
<path d="M0 0 C1.05 0 2.11 0 3.19 0 C5.01 -0.01 5.01 -0.01 6.86 -0.01 C8.22 -0.01 9.58 -0 10.94 0 C12.37 0 13.8 -0 15.23 -0.01 C19.18 -0.01 23.13 -0.01 27.08 0 C31.34 0.01 35.59 0 39.84 0 C48.18 -0 56.52 0 64.86 0.01 C74.56 0.02 84.27 0.02 93.97 0.02 C111.27 0.02 128.57 0.03 145.88 0.04 C162.69 0.06 179.5 0.06 196.31 0.06 C197.34 0.06 198.38 0.06 199.45 0.06 C201 0.06 201 0.06 202.58 0.06 C221.69 0.06 240.8 0.07 259.91 0.08 C266.68 0.08 273.45 0.08 280.22 0.08 C288.46 0.08 296.71 0.09 304.95 0.1 C309.16 0.1 313.38 0.1 317.59 0.1 C321.43 0.1 325.28 0.11 329.13 0.11 C330.53 0.11 331.93 0.12 333.33 0.11 C335.21 0.11 337.1 0.12 338.99 0.12 C340.57 0.12 340.57 0.12 342.18 0.12 C344.53 0.25 344.53 0.25 345.53 1.25 C345.63 3.12 345.65 4.99 345.65 6.85 C345.65 8.08 345.65 9.3 345.66 10.57 C345.65 11.94 345.65 13.32 345.65 14.7 C345.65 16.14 345.65 17.59 345.65 19.04 C345.65 23.04 345.65 27.04 345.64 31.04 C345.64 35.35 345.64 39.65 345.64 43.96 C345.64 51.43 345.64 58.89 345.63 66.36 C345.63 77.16 345.62 87.95 345.62 98.75 C345.62 116.26 345.61 133.77 345.6 151.29 C345.59 168.31 345.59 185.32 345.58 202.34 C345.58 203.91 345.58 203.91 345.58 205.52 C345.58 210.78 345.58 216.03 345.58 221.29 C345.57 264.94 345.55 308.6 345.53 352.25 C301.08 352.27 256.64 352.29 212.2 352.3 C206.96 352.3 201.71 352.3 196.47 352.3 C194.91 352.3 194.91 352.3 193.31 352.31 C176.39 352.31 159.47 352.32 142.55 352.33 C125.21 352.34 107.86 352.34 90.51 352.34 C79.8 352.35 69.09 352.35 58.38 352.36 C51.04 352.36 43.7 352.36 36.37 352.36 C32.13 352.36 27.89 352.36 23.65 352.37 C19.78 352.37 15.9 352.37 12.03 352.37 C10.62 352.37 9.21 352.37 7.8 352.37 C5.9 352.38 4 352.38 2.1 352.37 C1.04 352.37 -0.02 352.37 -1.11 352.37 C-3.47 352.25 -3.47 352.25 -4.47 351.25 C-4.57 349.4 -4.6 347.54 -4.6 345.68 C-4.6 344.47 -4.61 343.25 -4.61 342 C-4.61 340.63 -4.61 339.26 -4.61 337.89 C-4.61 336.45 -4.61 335.02 -4.61 333.58 C-4.62 329.6 -4.62 325.63 -4.62 321.66 C-4.62 317.38 -4.62 313.1 -4.63 308.82 C-4.64 300.44 -4.64 292.05 -4.64 283.66 C-4.64 276.85 -4.64 270.03 -4.64 263.22 C-4.65 243.92 -4.66 224.63 -4.66 205.33 C-4.66 204.29 -4.66 203.25 -4.66 202.18 C-4.66 201.13 -4.66 200.09 -4.66 199.02 C-4.66 182.11 -4.67 165.2 -4.68 148.3 C-4.7 130.96 -4.7 113.63 -4.7 96.29 C-4.7 86.55 -4.7 76.81 -4.71 67.06 C-4.72 58.77 -4.73 50.48 -4.72 42.18 C-4.72 37.95 -4.72 33.71 -4.72 29.48 C-4.73 25.61 -4.73 21.74 -4.72 17.86 C-4.72 16.46 -4.72 15.05 -4.73 13.65 C-4.73 11.75 -4.73 9.84 -4.72 7.94 C-4.72 6.88 -4.72 5.83 -4.72 4.73 C-4.37 1.27 -3.47 0.35 0 0 Z M94.53 79.25 C94.33 81.83 94.26 84.3 94.28 86.89 C94.28 87.68 94.28 88.48 94.27 89.3 C94.27 91.99 94.28 94.67 94.28 97.36 C94.28 99.28 94.28 101.2 94.28 103.12 C94.27 108.35 94.28 113.57 94.29 118.8 C94.3 124.25 94.3 129.71 94.3 135.17 C94.3 144.33 94.31 153.49 94.32 162.66 C94.34 173.27 94.34 183.88 94.34 194.49 C94.34 204.68 94.35 214.87 94.36 225.06 C94.36 229.4 94.36 233.75 94.36 238.09 C94.36 243.2 94.37 248.31 94.38 253.42 C94.38 255.31 94.38 257.19 94.38 259.07 C94.38 261.63 94.39 264.18 94.39 266.74 C94.39 267.49 94.39 268.25 94.39 269.03 C94.1 272.43 94.1 272.43 95.53 275.25 C98.23 275.36 100.91 275.41 103.62 275.41 C104.89 275.42 104.89 275.42 106.19 275.43 C109.02 275.44 111.85 275.45 114.68 275.45 C116.65 275.46 118.63 275.46 120.6 275.47 C124.76 275.48 128.91 275.49 133.07 275.49 C138.34 275.5 143.62 275.52 148.9 275.55 C152.99 275.57 157.07 275.57 161.16 275.57 C163.1 275.58 165.05 275.58 166.99 275.6 C191.04 275.75 215.03 273.24 233.34 255.94 C244.3 244.43 246.87 232.28 246.67 216.83 C246.14 203.47 241.92 190.85 232.55 180.99 C226.9 176.12 220.29 172.36 213.53 169.25 C214.15 168.87 214.76 168.49 215.4 168.11 C224.29 162.33 232.63 154.79 235.1 144.09 C237.26 129.79 237.93 114.04 229.38 101.55 C216.83 85.9 200.99 80.17 181.52 77.9 C172.97 76.98 164.46 76.96 155.88 76.98 C154.16 76.98 152.44 76.98 150.72 76.98 C147.15 76.98 143.59 76.98 140.03 76.99 C135.46 77 130.89 76.99 126.32 76.98 C122.79 76.97 119.26 76.98 115.73 76.98 C114.04 76.98 112.35 76.98 110.66 76.98 C108.32 76.97 105.99 76.98 103.65 76.99 C102.6 76.98 102.6 76.98 101.54 76.98 C97.59 76.92 97.59 76.92 94.53 79.25 Z " fill="#b08e64" transform="translate(33.47222048044205,181.7504523396492)"/>
<path d="M0 0 C1.57 0 1.57 0 3.18 0 C4.99 -0.01 4.99 -0.01 6.84 -0.01 C8.2 -0.01 9.55 -0 10.9 0 C12.33 0 13.76 -0 15.19 -0.01 C19.13 -0.01 23.07 -0.01 27 0 C31.25 0.01 35.49 0 39.73 0 C48.04 -0 56.36 0 64.68 0.01 C74.35 0.02 84.02 0.02 93.7 0.02 C110.95 0.02 128.2 0.03 145.46 0.04 C162.22 0.06 178.98 0.06 195.74 0.06 C197.29 0.06 197.29 0.06 198.87 0.06 C199.9 0.06 200.93 0.06 201.99 0.06 C221.05 0.06 240.1 0.07 259.16 0.08 C265.91 0.08 272.66 0.08 279.41 0.08 C287.63 0.08 295.85 0.09 304.07 0.1 C308.27 0.1 312.47 0.1 316.67 0.1 C320.51 0.1 324.34 0.11 328.18 0.11 C329.58 0.11 330.97 0.12 332.36 0.11 C334.25 0.11 336.13 0.12 338.01 0.12 C339.59 0.12 339.59 0.12 341.19 0.12 C343.53 0.25 343.53 0.25 344.53 1.25 C344.63 3.12 344.66 4.99 344.66 6.85 C344.66 8.08 344.66 9.3 344.66 10.57 C344.66 11.94 344.66 13.32 344.65 14.7 C344.65 16.14 344.66 17.59 344.66 19.04 C344.66 23.04 344.66 27.04 344.65 31.04 C344.65 35.35 344.65 39.65 344.65 43.96 C344.65 51.43 344.65 58.89 344.64 66.36 C344.63 77.16 344.63 87.95 344.63 98.75 C344.63 116.26 344.62 133.77 344.61 151.29 C344.6 168.31 344.59 185.32 344.59 202.34 C344.59 203.91 344.59 203.91 344.59 205.52 C344.59 210.78 344.59 216.03 344.58 221.29 C344.57 264.94 344.56 308.6 344.53 352.25 C300.22 352.27 255.9 352.29 211.59 352.3 C206.36 352.3 201.13 352.3 195.91 352.3 C194.35 352.3 194.35 352.3 192.75 352.31 C175.88 352.31 159.01 352.32 142.14 352.33 C124.85 352.34 107.55 352.34 90.25 352.34 C79.57 352.35 68.89 352.35 58.2 352.36 C50.89 352.36 43.58 352.36 36.26 352.36 C32.03 352.36 27.81 352.36 23.58 352.37 C19.72 352.37 15.85 352.37 11.99 352.37 C10.59 352.37 9.18 352.37 7.78 352.37 C5.88 352.38 3.99 352.38 2.09 352.37 C0.51 352.37 0.51 352.37 -1.11 352.37 C-3.47 352.25 -3.47 352.25 -4.47 351.25 C-4.57 349.4 -4.59 347.54 -4.59 345.68 C-4.6 344.47 -4.6 343.25 -4.6 342 C-4.6 340.63 -4.6 339.26 -4.6 337.89 C-4.6 336.45 -4.6 335.02 -4.61 333.58 C-4.61 329.6 -4.61 325.63 -4.61 321.66 C-4.61 317.38 -4.62 313.1 -4.62 308.82 C-4.63 300.44 -4.63 292.05 -4.63 283.66 C-4.63 276.85 -4.64 270.03 -4.64 263.22 C-4.65 243.92 -4.65 224.63 -4.65 205.33 C-4.65 204.29 -4.65 203.25 -4.65 202.18 C-4.65 201.13 -4.65 200.09 -4.65 199.02 C-4.65 182.11 -4.66 165.2 -4.67 148.3 C-4.69 130.96 -4.7 113.63 -4.69 96.29 C-4.69 86.55 -4.7 76.81 -4.71 67.06 C-4.72 58.77 -4.72 50.48 -4.71 42.18 C-4.71 37.95 -4.71 33.71 -4.72 29.48 C-4.73 25.61 -4.72 21.74 -4.72 17.86 C-4.71 16.46 -4.72 15.05 -4.72 13.65 C-4.73 11.75 -4.72 9.84 -4.71 7.94 C-4.71 6.88 -4.72 5.83 -4.72 4.73 C-4.37 1.27 -3.46 0.35 0 0 Z M93.53 79.25 C93.34 81.83 93.27 84.3 93.29 86.89 C93.28 87.68 93.28 88.48 93.28 89.3 C93.27 91.99 93.28 94.67 93.29 97.36 C93.29 99.28 93.29 101.2 93.29 103.12 C93.28 108.35 93.29 113.57 93.3 118.8 C93.31 124.25 93.31 129.71 93.31 135.17 C93.31 144.33 93.31 153.49 93.33 162.66 C93.34 173.27 93.35 183.88 93.35 194.49 C93.35 204.68 93.35 214.87 93.36 225.06 C93.36 229.4 93.37 233.75 93.37 238.09 C93.37 243.2 93.37 248.31 93.38 253.42 C93.39 255.31 93.39 257.19 93.39 259.07 C93.39 261.63 93.39 264.18 93.4 266.74 C93.4 267.49 93.4 268.25 93.4 269.03 C93.11 272.43 93.11 272.43 94.53 275.25 C97.27 275.36 99.99 275.41 102.73 275.41 C103.59 275.42 104.45 275.42 105.34 275.43 C108.21 275.44 111.07 275.45 113.94 275.45 C115.94 275.46 117.94 275.46 119.93 275.47 C124.14 275.48 128.35 275.49 132.56 275.49 C137.9 275.5 143.25 275.52 148.59 275.55 C152.73 275.57 156.87 275.57 161.01 275.57 C162.98 275.58 164.95 275.58 166.91 275.6 C188.1 275.73 210.45 274.11 227.53 260.25 C228.11 259.83 228.68 259.41 229.26 258.97 C239.43 251.21 244.3 239.32 245.98 226.98 C247.26 214.03 245.57 201.91 239.53 190.25 C238.87 190.25 238.21 190.25 237.53 190.25 C237.28 189.51 237.02 188.76 236.76 188 C233.64 181.01 226.36 175.48 219.53 172.25 C216.22 171.39 216.22 171.39 213.53 171.25 C214.53 168.25 214.53 168.25 216.97 166.69 C226.07 160.82 232.85 153.22 235.19 142.46 C237.51 127.49 236.36 111.95 227.53 99.25 C217.02 85.64 199.85 80.09 183.36 77.97 C174.33 77.04 165.31 77.09 156.25 77.08 C154.5 77.08 152.75 77.07 151 77.07 C147.35 77.07 143.71 77.06 140.06 77.06 C135.38 77.06 130.71 77.05 126.03 77.03 C122.43 77.02 118.82 77.02 115.22 77.02 C113.49 77.02 111.77 77.02 110.04 77.01 C107.64 77 105.24 77 102.84 77.01 C102.12 77 101.41 77 100.67 76.99 C96.66 76.9 96.66 76.9 93.53 79.25 Z " fill="#b08e64" transform="translate(470.4658084511757,181.7504523396492)"/>
<path d="M0 0 C0.86 -0.01 1.72 -0.03 2.6 -0.04 C3.54 -0.04 4.47 -0.04 5.43 -0.05 C6.4 -0.05 7.36 -0.06 8.36 -0.07 C10.41 -0.08 12.46 -0.08 14.51 -0.08 C17.61 -0.08 20.71 -0.12 23.81 -0.16 C50.35 -0.31 50.35 -0.31 59.49 8.65 C66.01 16.52 66.52 24.36 65.85 34.29 C64.55 40.02 60.95 45.26 56.03 48.48 C47.84 52.83 39.94 53.59 30.82 53.52 C29.79 53.52 28.76 53.52 27.7 53.52 C25.54 53.52 23.38 53.51 21.22 53.5 C17.9 53.48 14.57 53.48 11.25 53.48 C9.15 53.47 7.05 53.47 4.95 53.46 C3.45 53.46 3.45 53.46 1.92 53.46 C1.01 53.45 0.09 53.44 -0.85 53.44 C-1.66 53.43 -2.47 53.43 -3.3 53.42 C-5.15 53.29 -5.15 53.29 -6.15 52.29 C-6.26 50.74 -6.29 49.18 -6.3 47.62 C-6.3 46.62 -6.31 45.63 -6.32 44.61 C-6.32 43.52 -6.32 42.44 -6.32 41.33 C-6.32 40.22 -6.33 39.12 -6.33 37.98 C-6.33 35.64 -6.34 33.3 -6.34 30.96 C-6.34 27.37 -6.36 23.78 -6.38 20.19 C-6.38 17.92 -6.38 15.66 -6.38 13.39 C-6.39 12.31 -6.4 11.23 -6.4 10.11 C-6.4 9.12 -6.4 8.12 -6.39 7.09 C-6.4 6.21 -6.4 5.33 -6.4 4.42 C-5.92 0.28 -3.63 0.04 0 0 Z " fill="#b08e64" transform="translate(173.151611328125,371.70947265625)"/>
<path d="M0 0 C0.84 -0.01 1.68 -0.03 2.54 -0.04 C3.91 -0.04 3.91 -0.04 5.3 -0.05 C6.72 -0.06 6.72 -0.06 8.16 -0.07 C10.17 -0.08 12.17 -0.08 14.18 -0.08 C17.2 -0.08 20.23 -0.12 23.25 -0.16 C47.43 -0.3 47.43 -0.3 57.5 7.54 C63.79 13.89 65.27 19.12 65.38 27.92 C65.39 29.01 65.39 29.01 65.41 30.12 C65.32 35.79 63.96 39.77 60.35 44.27 C49.04 54.69 34.79 53.85 20.36 53.65 C17.16 53.6 13.95 53.59 10.74 53.57 C8.71 53.56 6.68 53.55 4.64 53.53 C3.2 53.52 3.2 53.52 1.73 53.51 C0.85 53.49 -0.02 53.48 -0.93 53.47 C-1.71 53.46 -2.48 53.45 -3.28 53.44 C-5.06 53.29 -5.06 53.29 -6.06 52.29 C-6.16 50.74 -6.2 49.18 -6.21 47.62 C-6.21 46.62 -6.22 45.63 -6.22 44.61 C-6.23 43.52 -6.23 42.44 -6.23 41.33 C-6.23 40.22 -6.23 39.12 -6.24 37.98 C-6.24 35.64 -6.25 33.3 -6.25 30.96 C-6.25 27.37 -6.27 23.78 -6.28 20.19 C-6.29 17.92 -6.29 15.66 -6.29 13.39 C-6.3 12.31 -6.3 11.23 -6.31 10.11 C-6.31 9.12 -6.31 8.12 -6.3 7.09 C-6.3 6.21 -6.31 5.33 -6.31 4.42 C-5.83 0.33 -3.6 0.04 0 0 Z " fill="#b08e64" transform="translate(610.059814453125,371.70947265625)"/>
<path d="M0 0 C1.05 -0 1.05 -0 2.12 -0.01 C3.62 -0.01 5.11 -0 6.6 0 C8.84 0.02 11.08 0.01 13.32 -0.01 C37.76 -0.03 37.76 -0.03 46.01 6.27 C52.77 13.59 53.62 20.32 53.42 30 C52.98 37.1 49.47 41.03 44.38 45.64 C34.07 50.61 23.55 50.69 12.35 50.55 C9.79 50.52 7.22 50.51 4.66 50.5 C3.03 50.49 1.41 50.48 -0.22 50.47 C-0.99 50.46 -1.76 50.46 -2.55 50.46 C-7.87 50.38 -7.87 50.38 -8.99 49.27 C-9.1 47.8 -9.13 46.34 -9.14 44.87 C-9.14 43.93 -9.15 43 -9.16 42.04 C-9.16 41.02 -9.16 40 -9.16 38.96 C-9.17 37.4 -9.17 37.4 -9.17 35.81 C-9.18 33.62 -9.18 31.42 -9.18 29.22 C-9.18 25.85 -9.2 22.47 -9.22 19.1 C-9.22 16.97 -9.22 14.84 -9.22 12.71 C-9.23 11.69 -9.24 10.68 -9.24 9.63 C-9.24 8.69 -9.24 7.76 -9.24 6.79 C-9.24 5.96 -9.24 5.14 -9.24 4.28 C-8.6 -0.95 -4.21 0.01 0 0 Z " fill="#b08e64" transform="translate(175.9921875,290.734375)"/>
<path d="M0 0 C1.12 0 1.12 0 2.26 0.01 C4.48 0.01 6.7 -0.01 8.91 -0.04 C33.7 -0.15 33.7 -0.15 41.78 7.32 C48.55 15.13 49.48 21.04 48.78 31.32 C47.59 37.79 44.07 42.48 38.78 46.32 C31.35 49.85 23.48 50.48 15.35 50.46 C14.17 50.46 14.17 50.46 12.96 50.46 C11.31 50.46 9.65 50.46 8 50.45 C5.46 50.45 2.91 50.45 0.37 50.46 C-1.24 50.46 -2.85 50.46 -4.46 50.46 C-5.22 50.46 -5.99 50.46 -6.77 50.46 C-12.11 50.44 -12.11 50.44 -13.22 49.32 C-13.33 47.86 -13.36 46.39 -13.37 44.93 C-13.37 43.99 -13.38 43.06 -13.39 42.09 C-13.39 41.08 -13.39 40.06 -13.39 39.01 C-13.4 37.46 -13.4 37.46 -13.4 35.87 C-13.41 33.67 -13.41 31.47 -13.41 29.28 C-13.41 25.9 -13.43 22.53 -13.45 19.16 C-13.45 17.03 -13.45 14.89 -13.45 12.76 C-13.46 11.75 -13.47 10.73 -13.47 9.69 C-13.47 8.75 -13.47 7.81 -13.47 6.85 C-13.47 6.02 -13.47 5.19 -13.47 4.34 C-12.7 -1.95 -4.77 0.02 0 0 Z " fill="#b08e64" transform="translate(617.22265625,290.677734375)"/>
</svg>
