<?xml version="1.0" encoding="UTF-8"?>
<!-- Generator: visioncortex VTracer 0.6.3 -->
<svg version="1.1" xmlns="http://www.w3.org/2000/svg" width="1280" height="853">
<path d="M0 0 C11.55 0 23.1 0 35 0 C35.33 23.76 35.66 47.52 36 72 C37.98 69.03 39.96 66.06 42 63 C46.4 57.5 46.4 57.5 48 56 C48.66 56 49.32 56 50 56 C50 55.34 50 54.68 50 54 C65.03 44.76 78.47 40.75 96.25 43.5 C98.93 44.17 101.43 44.99 104 46 C104.82 46.32 105.65 46.63 106.5 46.96 C117.33 51.73 127.99 61.34 132.38 72.5 C132.58 73.32 132.79 74.15 133 75 C133.66 75 134.32 75 135 75 C135.2 74.18 135.2 74.18 135.41 73.35 C138.68 61.9 147.2 53.08 157.44 47.25 C171.13 40.92 185.48 41.14 199.69 45.62 C213.39 51.11 220.97 60.98 227 74 C229.19 72 229.19 72 230.69 68.88 C233.16 64.45 236.32 60.49 240 57 C240.66 57 241.32 57 242 57 C242 56.34 242 55.68 242 55 C255.3 44.55 269.58 42 286 43 C300.99 45.15 312.98 53.42 321.94 65.25 C325.84 70.53 325.84 70.53 327 74 C327.33 49.58 327.66 25.16 328 0 C339.88 0 351.76 0 364 0 C364 13.86 364 27.72 364 42 C375.55 42 387.1 42 399 42 C399.33 66.09 399.66 90.18 400 115 C405.43 117.23 405.43 117.23 411 117 C413.78 114.29 414.9 112.6 415.52 108.74 C415.53 107.51 415.54 106.28 415.55 105.01 C415.56 104.32 415.57 103.64 415.58 102.94 C415.61 100.69 415.61 98.45 415.61 96.2 C415.62 94.64 415.64 93.07 415.66 91.51 C415.7 87.41 415.72 83.31 415.74 79.21 C415.76 74.28 415.81 69.35 415.86 64.43 C415.93 56.95 415.96 49.48 416 42 C427.55 42 439.1 42 451 42 C451.11 58.07 451.21 74.15 451.26 90.22 C451.28 97.68 451.32 105.15 451.38 112.61 C451.43 119.12 451.46 125.64 451.47 132.15 C451.48 135.59 451.49 139.03 451.53 142.48 C451.57 146.33 451.57 150.19 451.57 154.05 C451.59 155.17 451.6 156.29 451.62 157.45 C451.54 169.56 447.14 180.92 439 190 C438.34 190 437.68 190 437 190 C437 190.66 437 191.32 437 192 C423.67 202.17 408.61 205.26 392 204 C379.94 202.29 369.59 197.41 360 190 C362.71 185.04 365.67 180.53 369.12 176.06 C369.57 175.47 370.01 174.89 370.46 174.28 C371.59 172.81 372.79 171.4 374 170 C374.66 170 375.32 170 376 170 C376.29 169.4 376.58 168.8 376.88 168.19 C378 166 378 166 380 163 C386 165 386 165 388.81 166.12 C395.83 168.05 401.64 167.49 408 164 C412.04 160.94 413.03 157.92 414 153 C414.14 149.99 414.12 147.01 414 144 C413.4 144.42 412.79 144.84 412.17 145.28 C411.37 145.83 410.57 146.37 409.75 146.94 C408.96 147.48 408.17 148.03 407.36 148.59 C403 151.2 399.17 151.16 394.12 151.19 C392.93 151.2 391.74 151.22 390.51 151.23 C382.51 150.71 375.44 146.86 370.12 140.9 C368.2 138.35 366.43 135.86 365 133 C364.67 139.27 364.34 145.54 364 152 C352.12 152 340.24 152 328 152 C328 136.49 328 120.98 328 105 C304.57 105 281.14 105 257 105 C258.65 107.64 260.3 110.28 262 113 C262 113.66 262 114.32 262 115 C262.74 115.29 263.49 115.58 264.25 115.88 C267 117 267 117 268.78 118.05 C273.87 120.23 281.15 120.12 286.28 118.1 C287.55 117.37 288.82 116.64 290.09 115.9 C298.43 111.97 312.32 116.14 321 118 C321.66 118.33 322.32 118.66 323 119 C322.52 124.06 321.05 126.96 318 131 C317.6 131.56 317.2 132.11 316.79 132.69 C309.4 142.26 296.98 148.27 285.27 150.53 C282.84 150.8 280.45 150.94 278 151 C277.24 151.04 276.48 151.08 275.7 151.12 C262.62 151.52 250.54 146.22 240.62 137.81 C236 133 236 133 228 121 C227.67 131.23 227.34 141.46 227 152 C215.45 152 203.9 152 192 152 C191.96 146.99 191.93 141.99 191.89 136.83 C191.86 133.66 191.83 130.48 191.79 127.31 C191.74 122.28 191.69 117.24 191.65 112.21 C191.63 108.15 191.59 104.09 191.54 100.03 C191.52 98.48 191.51 96.94 191.5 95.39 C191.49 93.22 191.46 91.05 191.43 88.88 C191.42 87.65 191.41 86.41 191.4 85.14 C190.97 81.76 190.41 80.37 188 78 C185.2 77.07 183.46 76.87 180.56 76.88 C179.8 76.87 179.04 76.87 178.25 76.87 C175.95 77 174.14 77.14 172 78 C169.63 81.5 169.73 84.74 169.68 88.88 C169.67 89.56 169.66 90.25 169.65 90.95 C169.62 93.2 169.6 95.45 169.59 97.7 C169.57 99.27 169.55 100.83 169.53 102.39 C169.48 106.5 169.44 110.61 169.4 114.72 C169.35 119.66 169.29 124.59 169.23 129.53 C169.14 137.02 169.07 144.51 169 152 C157.45 152 145.9 152 134 152 C133.67 141.11 133.34 130.22 133 119 C130.69 122.63 128.38 126.26 126 130 C124.68 131.65 123.36 133.3 122 135 C121.34 135 120.68 135 120 135 C120 135.66 120 136.32 120 137 C110.14 146.21 95.24 150.44 81.97 150.28 C67.06 148.87 54.23 142.89 44 132 C41.02 128.2 38.16 124.33 36 120 C35.67 130.56 35.34 141.12 35 152 C23.45 152 11.9 152 0 152 C0 101.84 0 51.68 0 0 Z M66.23 81.23 C61.67 87.78 60.15 93.02 61 101 C63.26 108.11 68.19 113.74 74.79 117.27 C80.39 119.12 86.86 119.15 92.41 117.12 C98.32 113.69 102.88 108.86 105.38 102.5 C106.91 93.93 105.66 87.84 100.75 80.75 C95.07 75.07 91.56 73.73 83.56 73.44 C75.69 73.69 71.15 75.04 66.23 81.23 Z M263.19 79.25 C258.3 84.62 258.3 84.62 256 91 C270.19 91 284.38 91 299 91 C297.69 86.92 297.69 86.92 296 83 C295.34 83 294.68 83 294 83 C293.5 81.51 293.5 81.51 293 80 C283.33 73.74 272.84 71.53 263.19 79.25 Z " fill="#b08e64" transform="translate(148,332)"/>
<path d="M0 0 C11.88 0 23.76 0 36 0 C36.33 23.43 36.66 46.86 37 71 C38.98 68.03 40.96 65.06 43 62 C51.51 51.81 62.81 45.02 76 43 C93.84 41.57 108.12 45.29 122 57 C127.23 62.39 130.96 68.16 134 75 C134.46 74.12 134.92 73.24 135.39 72.33 C136.31 70.59 136.31 70.59 137.25 68.81 C137.85 67.66 138.46 66.52 139.08 65.33 C140.85 62.27 142.62 59.61 145 57 C145.66 57 146.32 57 147 57 C147.33 56.01 147.66 55.02 148 54 C158.43 45.71 171.6 40.68 185 42 C194.65 43.74 202.98 46.12 211 52 C211.57 52.4 212.14 52.8 212.73 53.21 C220.08 58.81 224.2 66.79 228 75 C228.34 74.39 228.68 73.77 229.02 73.14 C229.47 72.33 229.92 71.52 230.38 70.69 C231.04 69.49 231.04 69.49 231.71 68.26 C232.74 66.46 233.85 64.72 235 63 C235.66 63 236.32 63 237 63 C237.37 62.13 237.37 62.13 237.75 61.25 C242.81 52.15 253.6 47.28 263.06 44.19 C278.35 40.4 293.7 42.94 307.12 50.88 C315.99 56.35 322.31 62.62 327 72 C327.33 55.5 327.66 39 328 22 C339.55 22 351.1 22 363 22 C363 28.93 363 35.86 363 43 C370.26 43 377.52 43 385 43 C385 53.56 385 64.12 385 75 C377.74 75 370.48 75 363 75 C361.83 92.35 361.83 92.35 366 109 C370 112.05 372.96 112.45 377.84 112.3 C380.74 111.9 382.7 110.78 385 109 C386.58 114.32 386.45 119.86 386.57 125.36 C386.62 127.36 386.73 129.36 386.84 131.36 C387.02 140.79 387.02 140.79 384.16 144.18 C381.83 145.79 379.62 146.94 377 148 C375.95 148.44 374.91 148.88 373.83 149.33 C364.79 151.47 354.25 152.46 345.85 147.81 C337.14 141.69 330.81 133.91 328.81 123.38 C327.73 117.09 328 111.64 328 105 C293.35 105.5 293.35 105.5 258 106 C262.28 113.5 264.65 116.2 272.31 119.38 C279.37 120.57 285.87 119.89 292 116 C292.47 115.47 292.93 114.94 293.41 114.39 C295 113 295 113 296.81 112.82 C297.53 112.92 298.26 113.02 299 113.12 C299.86 113.24 300.73 113.35 301.62 113.47 C302.73 113.65 303.85 113.82 305 114 C305.77 114.12 306.53 114.23 307.33 114.35 C312.89 115.21 318.45 116.09 324 117 C325.6 122.22 323.28 125.27 320.83 129.94 C318.37 134.05 315.62 137.83 312 141 C311.34 141 310.68 141 310 141 C310 141.66 310 142.32 310 143 C294.74 152.13 280.87 153.74 263.47 149.9 C254.45 147.56 247.07 143.11 240 137 C240 136.34 240 135.68 240 135 C239.01 134.67 238.02 134.34 237 134 C235.21 131.79 235.21 131.79 233.38 129.06 C232.46 127.72 232.46 127.72 231.52 126.35 C230 124 230 124 229 122 C228.67 131.9 228.34 141.8 228 152 C216.12 152 204.24 152 192 152 C191.96 147.08 191.93 142.15 191.89 137.08 C191.86 133.96 191.83 130.84 191.79 127.72 C191.74 122.76 191.69 117.81 191.65 112.86 C191.63 108.86 191.59 104.87 191.54 100.87 C191.52 99.35 191.51 97.83 191.5 96.31 C191.49 94.17 191.46 92.04 191.43 89.9 C191.42 88.69 191.41 87.47 191.4 86.22 C190.96 82.7 190.17 80.79 188 78 C182.93 76.31 177.93 76.16 173 78.31 C170.74 79.93 170.74 79.93 170 83 C169.88 85.22 169.82 87.45 169.79 89.67 C169.78 90.35 169.77 91.02 169.76 91.72 C169.73 93.94 169.71 96.16 169.68 98.39 C169.66 99.93 169.64 101.47 169.62 103.01 C169.57 107.07 169.52 111.13 169.47 115.19 C169.41 120.06 169.34 124.93 169.28 129.8 C169.18 137.2 169.09 144.6 169 152 C149.53 152 130.06 152 110 152 C109.67 145.4 109.34 138.8 109 132 C106.26 136.38 106.26 136.38 103.53 140.76 C100.45 145.61 97.48 149.87 92.11 152.32 C83.21 154.26 73.38 152.29 65 149 C64.19 148.68 63.38 148.37 62.55 148.04 C55.27 144.81 49.4 139.8 44 134 C44 133.34 44 132.68 44 132 C43.34 132 42.68 132 42 132 C40.35 129.36 38.7 126.72 37 124 C36.67 133.24 36.34 142.48 36 152 C24.12 152 12.24 152 0 152 C-0.33 142.43 -0.66 132.86 -1 123 C-4.47 127.45 -4.47 127.45 -8 132 C-8.66 132 -9.32 132 -10 132 C-10.33 132.99 -10.66 133.98 -11 135 C-20.85 145.13 -36.31 148.94 -49.94 149.31 C-56.36 149.24 -61.93 148 -68 146 C-67.93 146.81 -67.86 147.63 -67.78 148.47 C-67.02 157.97 -66.88 167.35 -66.94 176.88 C-66.96 181.87 -66.98 186.86 -67 192 C-78.88 192 -90.76 192 -103 192 C-103.07 179.61 -103.12 167.22 -103.16 154.84 C-103.17 149.08 -103.19 143.33 -103.23 137.57 C-103.26 132.01 -103.28 126.45 -103.28 120.88 C-103.29 118.77 -103.3 116.66 -103.32 114.55 C-103.47 94.03 -101.79 75.64 -88.15 59.1 C-77.37 48.59 -63.71 42.19 -48.62 41.56 C-33.26 42.1 -19.83 48.53 -9.13 59.4 C-6.14 63.05 -3.62 67.07 -1 71 C-0.67 47.57 -0.34 24.14 0 0 Z M-65.44 82.31 C-69.31 87.3 -70.29 92.27 -69.88 98.5 C-68.94 104.73 -66.65 109.31 -62.25 113.81 C-56.37 117.77 -51.18 119.65 -44 119 C-37.43 117.71 -32.38 115.32 -28.45 109.84 C-24.97 103.65 -23.79 98.02 -25 91 C-27.15 83.87 -30.58 79.87 -36.91 76.06 C-47.32 70.78 -57.77 74.24 -65.44 82.31 Z M65.41 84 C61.33 89.79 61.18 96.28 62.36 103.07 C64.2 109.42 68.73 113.28 74 117 C79.85 119.71 85.8 119.37 92 118 C98.15 115.49 101.59 111.58 105 106 C107 100 107.25 92.41 105.06 86.44 C101.35 80.29 96.01 75.89 89 74 C78.63 72.59 71.88 75.99 65.41 84 Z M263 78 C263 78.66 263 79.32 263 80 C262.34 80 261.68 80 261 80 C260.01 81.67 260.01 81.67 259 83.38 C258.63 84 258.26 84.63 257.88 85.27 C256.85 86.97 256.85 86.97 257 89 C270.86 89 284.72 89 299 89 C295.59 81.05 292.9 77.32 285 74 C276.9 73.03 269.59 72.85 263 78 Z " fill="#b08e64" transform="translate(746,332)"/>
<path d="M0 0 C0.68 0.45 1.35 0.9 2.05 1.37 C3.73 2.53 5.37 3.76 7 5 C7 5.66 7 6.32 7 7 C7.57 7.27 8.14 7.54 8.73 7.81 C11.08 9.04 13.12 10.43 15.25 12 C16.31 12.77 16.31 12.77 17.39 13.56 C17.92 14.04 18.45 14.51 19 15 C19 15.66 19 16.32 19 17 C19.58 17.26 20.16 17.51 20.76 17.77 C23.23 19.13 24.9 20.64 26.89 22.62 C27.95 23.68 27.95 23.68 29.04 24.77 C29.77 25.5 30.5 26.24 31.25 27 C32 27.74 32.74 28.47 33.51 29.23 C34.21 29.94 34.92 30.65 35.64 31.38 C36.29 32.02 36.93 32.67 37.59 33.34 C39 35 39 35 39 37 C39.66 37 40.32 37 41 37 C42.95 39.12 42.95 39.12 45.12 41.88 C45.85 42.78 46.57 43.68 47.32 44.62 C49 47 49 47 49 49 C49.66 49 50.32 49 51 49 C55 54.41 55 54.41 55 57 C55.66 57 56.32 57 57 57 C57.84 58.49 57.84 58.49 58.69 60 C60.15 62.56 61.66 65.07 63.25 67.56 C71.69 81.03 78.79 94.89 84.44 109.75 C84.7 110.43 84.96 111.11 85.22 111.81 C86.29 114.69 87 116.91 87 120 C83.78 121.18 80.54 122.34 77.31 123.5 C76.4 123.83 75.49 124.17 74.55 124.51 C73.22 124.99 73.22 124.99 71.86 125.47 C71.05 125.76 70.24 126.06 69.4 126.36 C66.84 127.04 64.64 127.12 62 127 C61.78 126.43 61.56 125.86 61.33 125.27 C56.14 111.9 50.35 99.32 43 87 C42.44 86.03 41.88 85.07 41.3 84.07 C33.27 70.77 22.52 55.39 10 46 C8.19 44.37 8.19 44.37 7 43 C7 42.34 7 41.68 7 41 C6.43 40.74 5.85 40.49 5.26 40.22 C2.79 38.88 0.95 37.33 -1.12 35.44 C-3.86 32.92 -3.86 32.92 -7 31 C-7 30.34 -7 29.68 -7 29 C-7.82 28.62 -7.82 28.62 -8.66 28.23 C-11.4 26.79 -13.88 25.12 -16.44 23.38 C-65.33 -9.38 -122.65 -22.32 -180.87 -11.48 C-205.4 -6.56 -230.09 2 -251 16 C-251.68 16.45 -252.37 16.9 -253.07 17.37 C-262.77 23.82 -272.18 30.38 -281 38 C-282.03 38.84 -282.03 38.84 -283.07 39.71 C-286.51 42.56 -289.26 45.44 -292 49 C-293.67 50.67 -295.33 52.33 -297 54 C-317.42 75.25 -331.23 100.81 -342 128 C-350.62 125.69 -358.77 122.39 -367 119 C-358.98 94.43 -346.92 73.01 -332 52 C-331.01 50.51 -331.01 50.51 -330 49 C-329.34 49 -328.68 49 -328 49 C-327.73 48.43 -327.46 47.86 -327.19 47.27 C-325.96 44.92 -324.57 42.88 -323 40.75 C-322.48 40.04 -321.97 39.34 -321.44 38.61 C-320.96 38.08 -320.49 37.55 -320 37 C-319.34 37 -318.68 37 -318 37 C-317.5 35.51 -317.5 35.51 -317 34 C-316.34 34 -315.68 34 -315 34 C-314.77 33.45 -314.55 32.9 -314.31 32.33 C-312.61 29.31 -310.45 27.19 -308 24.75 C-306.67 23.41 -306.67 23.41 -305.31 22.05 C-303 20 -303 20 -301 20 C-300.67 19.01 -300.34 18.02 -300 17 C-298.29 15.44 -296.5 13.94 -294.69 12.5 C-293.72 11.73 -292.76 10.95 -291.76 10.16 C-290.85 9.44 -289.94 8.73 -289 8 C-287.9 7.12 -287.9 7.12 -286.77 6.22 C-285 5 -285 5 -283 5 C-283 4.34 -283 3.68 -283 3 C-280.8 1.36 -278.61 -0.14 -276.31 -1.62 C-275.63 -2.07 -274.95 -2.52 -274.24 -2.98 C-272.17 -4.33 -270.08 -5.66 -268 -7 C-266.9 -7.71 -265.8 -8.42 -264.67 -9.16 C-250.24 -18.29 -234.95 -25 -219 -31 C-218.35 -31.25 -217.69 -31.5 -217.02 -31.75 C-144.92 -58.86 -62.34 -42.41 0 0 Z " fill="#b08e64" transform="translate(778,227)"/>
<path d="M0 0 C2.03 0.66 4.05 1.33 6.07 2.02 C8.27 2.75 10.47 3.47 12.68 4.17 C13.95 4.59 15.23 5.01 16.5 5.44 C17.71 5.83 18.91 6.22 20.16 6.62 C23 8 23 8 23.78 9.78 C24.06 12.64 23.39 14.31 22.3 16.97 C21.9 17.95 21.5 18.92 21.09 19.92 C20.65 20.96 20.21 21.99 19.75 23.06 C19.3 24.13 18.85 25.19 18.39 26.29 C13.19 38.32 6.92 49.72 -0.82 60.3 C-2 62 -2.99 63.73 -3.98 65.54 C-6.02 69.2 -8.55 72.24 -11.31 75.38 C-15.28 79.95 -19.07 84.6 -22.66 89.49 C-23.32 90.24 -23.32 90.24 -24 91 C-24.66 91 -25.32 91 -26 91 C-26.23 91.56 -26.47 92.12 -26.71 92.7 C-30.74 99.88 -38.58 105.92 -45 111 C-45.66 111 -46.32 111 -47 111 C-47.33 111.99 -47.66 112.98 -48 114 C-49.71 115.53 -49.71 115.53 -51.94 117.14 C-52.75 117.74 -53.56 118.33 -54.4 118.95 C-55.26 119.56 -56.12 120.18 -57 120.81 C-57.83 121.42 -58.65 122.02 -59.5 122.64 C-68.36 129.08 -77.29 134.94 -87 140 C-87.57 140.3 -88.14 140.6 -88.73 140.91 C-99.84 146.76 -111.25 151.58 -123 156 C-123.65 156.25 -124.31 156.5 -124.98 156.75 C-177.57 176.53 -239.16 172.78 -291 153 C-291.74 152.72 -292.48 152.44 -293.25 152.15 C-301.45 149.01 -309.35 145.46 -317.12 141.38 C-317.81 141.01 -318.5 140.65 -319.21 140.28 C-323.74 137.84 -327.83 135.03 -332 132 C-333.05 131.42 -334.1 130.85 -335.19 130.25 C-340.85 127.1 -345.88 122.95 -351 119 C-351.84 118.36 -352.68 117.72 -353.54 117.06 C-360.73 111.45 -367.39 105.28 -374 99 C-374.79 98.25 -375.58 97.5 -376.39 96.73 C-380.18 93.06 -383.46 89.29 -386.48 84.96 C-388.03 82.86 -388.03 82.86 -390.31 80.76 C-393.57 77.42 -396.16 73.82 -398.81 70 C-399.34 69.25 -399.87 68.49 -400.41 67.72 C-407.9 56.89 -414.34 45.77 -420.06 33.92 C-420.7 32.61 -421.36 31.31 -422.03 30.02 C-424.39 25.45 -426.2 20.9 -427.75 16 C-427.97 15.32 -428.19 14.64 -428.42 13.94 C-428.95 12.3 -429.48 10.65 -430 9 C-425.32 6.96 -420.62 5.06 -415.81 3.31 C-414.62 2.88 -413.43 2.44 -412.21 1.99 C-409 1 -409 1 -405 1 C-404.75 1.61 -404.5 2.22 -404.24 2.84 C-396.09 22.46 -386.27 39.7 -374 57 C-373.56 57.63 -373.12 58.26 -372.66 58.92 C-370.65 61.79 -368.68 64.32 -366.19 66.81 C-364 69 -364 69 -364 71 C-362.51 71.5 -362.51 71.5 -361 72 C-359.56 73.5 -359.56 73.5 -358 75.44 C-353.4 80.88 -347.45 87.78 -341 91 C-341 91.66 -341 92.32 -341 93 C-340.47 93.24 -339.94 93.47 -339.39 93.71 C-336.28 95.39 -333.52 97.47 -330.69 99.56 C-318.5 108.38 -305.59 115.58 -292 122 C-290.33 122.8 -290.33 122.8 -288.62 123.62 C-252.32 140.14 -206.22 145.26 -167 138 C-166.12 137.84 -165.24 137.68 -164.34 137.51 C-143.68 133.59 -124.92 127.12 -106 118 C-104.99 117.52 -104.99 117.52 -103.97 117.02 C-94.8 112.56 -86.48 107.1 -78.17 101.22 C-77.39 100.67 -76.62 100.12 -75.82 99.56 C-75.13 99.07 -74.44 98.58 -73.73 98.07 C-72 97 -72 97 -70 97 C-70 96.34 -70 95.68 -70 95 C-67.95 93.13 -67.95 93.13 -65.25 91 C-63.93 89.95 -63.93 89.95 -62.58 88.88 C-60 87 -60 87 -57.73 85.94 C-55.64 85.06 -55.64 85.06 -55 82 C-54.34 82 -53.68 82 -53 82 C-52.67 81.01 -52.34 80.02 -52 79 C-51.34 79 -50.68 79 -50 79 C-49.67 78.01 -49.34 77.02 -49 76 C-48.34 76 -47.68 76 -47 76 C-46.67 75.01 -46.34 74.02 -46 73 C-45.34 73 -44.68 73 -44 73 C-43.75 72.42 -43.5 71.85 -43.24 71.25 C-41.84 68.71 -40.22 67.01 -38.19 64.94 C-21.05 46.25 -10.12 22.96 0 0 Z " fill="#b08e64" transform="translate(841,501)"/>
</svg>
