<?xml version="1.0" encoding="UTF-8"?>
<!-- Generator: visioncortex VTracer 0.6.3 -->
<svg version="1.1" xmlns="http://www.w3.org/2000/svg" width="1280" height="720">
<path d="M0 0 C1.17 0 1.17 0 2.37 0 C3.72 -0.01 3.72 -0.01 5.1 -0.01 C6.1 -0.01 7.1 -0 8.13 0 C9.18 -0 10.24 -0 11.32 -0.01 C14.88 -0.01 18.44 -0 21.99 0.01 C24.53 0.01 27.07 0 29.61 0 C35.81 -0 42.01 0 48.21 0.01 C55.42 0.02 62.63 0.02 69.84 0.02 C82.7 0.02 95.56 0.03 108.42 0.04 C120.92 0.06 133.41 0.06 145.9 0.06 C147.06 0.06 147.06 0.06 148.24 0.06 C149.39 0.06 149.39 0.06 150.56 0.06 C164.77 0.06 178.97 0.07 193.18 0.08 C198.21 0.08 203.24 0.08 208.27 0.08 C215.04 0.08 221.8 0.09 228.57 0.1 C231.06 0.1 233.55 0.1 236.04 0.1 C239.43 0.1 242.81 0.11 246.2 0.12 C247.2 0.11 248.2 0.11 249.23 0.11 C250.13 0.11 251.02 0.12 251.95 0.12 C252.73 0.12 253.52 0.12 254.32 0.12 C256.1 0.25 256.1 0.25 257.1 1.25 C257.2 3.23 257.22 5.21 257.22 7.2 C257.22 8.5 257.23 9.8 257.23 11.14 C257.22 12.6 257.22 14.07 257.22 15.53 C257.22 17.07 257.22 18.61 257.22 20.15 C257.22 24.4 257.22 28.65 257.21 32.9 C257.21 37.48 257.21 42.05 257.21 46.63 C257.21 54.56 257.21 62.5 257.2 70.43 C257.2 81.91 257.19 93.38 257.19 104.85 C257.19 123.46 257.18 142.08 257.17 160.69 C257.16 178.77 257.16 196.86 257.15 214.94 C257.15 216.61 257.15 216.61 257.15 218.32 C257.15 223.9 257.15 229.49 257.15 235.08 C257.14 281.47 257.12 327.86 257.1 374.25 C223.99 374.27 190.89 374.29 157.78 374.3 C153.88 374.3 149.97 374.3 146.07 374.3 C144.9 374.3 144.9 374.3 143.71 374.31 C131.11 374.31 118.51 374.32 105.91 374.33 C92.98 374.34 80.06 374.34 67.14 374.34 C59.16 374.35 51.18 374.35 43.2 374.36 C37.09 374.36 30.98 374.36 24.88 374.36 C22.36 374.36 19.85 374.36 17.34 374.37 C13.92 374.37 10.5 374.37 7.09 374.37 C6.08 374.37 5.07 374.38 4.03 374.38 C3.12 374.38 2.22 374.37 1.28 374.37 C0.1 374.37 0.1 374.37 -1.11 374.37 C-2.9 374.25 -2.9 374.25 -3.9 373.25 C-4 371.28 -4.03 369.31 -4.03 367.34 C-4.03 366.04 -4.04 364.75 -4.04 363.42 C-4.04 361.97 -4.04 360.51 -4.04 359.06 C-4.04 357.53 -4.04 356 -4.04 354.47 C-4.05 350.25 -4.05 346.02 -4.05 341.8 C-4.05 337.25 -4.05 332.7 -4.06 328.16 C-4.07 319.24 -4.07 310.32 -4.07 301.4 C-4.07 294.16 -4.07 286.92 -4.07 279.67 C-4.08 259.16 -4.09 238.64 -4.09 218.13 C-4.09 217.02 -4.09 215.92 -4.09 214.78 C-4.09 213.67 -4.09 212.56 -4.09 211.42 C-4.09 193.44 -4.1 175.47 -4.11 157.5 C-4.12 139.07 -4.13 120.64 -4.13 102.21 C-4.13 91.85 -4.13 81.49 -4.14 71.14 C-4.15 62.32 -4.15 53.5 -4.15 44.69 C-4.14 40.19 -4.14 35.68 -4.15 31.18 C-4.16 27.06 -4.16 22.95 -4.15 18.83 C-4.15 17.34 -4.15 15.84 -4.16 14.35 C-4.16 12.33 -4.16 10.31 -4.15 8.29 C-4.15 7.16 -4.15 6.04 -4.15 4.88 C-3.85 1.76 -3.25 0.43 0 0 Z M34.1 40.25 C33.8 42.48 33.8 42.48 33.85 45.1 C33.84 46.13 33.84 47.16 33.84 48.22 C33.84 49.37 33.85 50.51 33.85 51.68 C33.85 52.89 33.85 54.09 33.84 55.34 C33.84 58.69 33.84 62.05 33.85 65.41 C33.86 69.02 33.85 72.64 33.85 76.26 C33.84 83.34 33.85 90.43 33.86 97.52 C33.87 105.77 33.87 114.01 33.87 122.26 C33.87 136.97 33.88 151.68 33.89 166.38 C33.91 180.67 33.91 194.96 33.91 209.25 C33.91 210.13 33.91 211.01 33.91 211.91 C33.91 212.79 33.91 213.67 33.91 214.58 C33.91 230.82 33.92 247.06 33.93 263.31 C33.93 269.06 33.93 274.82 33.93 280.57 C33.93 287.58 33.94 294.59 33.95 301.6 C33.95 305.17 33.95 308.75 33.95 312.33 C33.95 316.2 33.96 320.07 33.96 323.94 C33.96 325.09 33.96 326.23 33.96 327.41 C33.96 328.44 33.97 329.47 33.97 330.52 C33.97 331.42 33.97 332.31 33.97 333.24 C33.88 335.25 33.88 335.25 35.1 336.25 C37.48 336.35 39.83 336.38 42.2 336.37 C43.33 336.37 43.33 336.37 44.48 336.37 C47.02 336.37 49.56 336.37 52.1 336.36 C53.92 336.36 55.73 336.36 57.54 336.36 C62.48 336.36 67.42 336.36 72.35 336.35 C77.51 336.34 82.66 336.34 87.82 336.34 C97.59 336.34 107.35 336.33 117.12 336.32 C128.24 336.31 139.36 336.3 150.47 336.3 C173.35 336.29 196.22 336.27 219.1 336.25 C219.12 298.43 219.14 260.61 219.15 222.79 C219.15 218.33 219.15 213.87 219.15 209.41 C219.15 208.52 219.15 207.64 219.15 206.72 C219.16 192.32 219.17 177.93 219.18 163.53 C219.18 148.77 219.19 134.01 219.19 119.25 C219.19 110.13 219.2 101.01 219.21 91.9 C219.21 85.66 219.21 79.41 219.21 73.17 C219.21 69.56 219.21 65.96 219.22 62.35 C219.22 58.45 219.22 54.55 219.22 50.65 C219.22 49.49 219.22 48.34 219.23 47.15 C219.23 46.12 219.22 45.08 219.22 44.01 C219.22 42.66 219.22 42.66 219.22 41.28 C219.32 39.25 219.32 39.25 218.1 38.25 C215.75 38.15 213.43 38.11 211.08 38.12 C209.97 38.11 209.97 38.11 208.83 38.11 C206.32 38.1 203.82 38.1 201.31 38.1 C199.52 38.1 197.73 38.1 195.94 38.09 C191.06 38.09 186.19 38.08 181.31 38.08 C177.25 38.08 173.19 38.08 169.12 38.07 C159.54 38.07 149.96 38.06 140.37 38.06 C130.47 38.06 120.57 38.05 110.67 38.04 C102.18 38.03 93.7 38.02 85.21 38.02 C80.13 38.02 75.06 38.02 69.99 38.01 C65.21 38 60.44 38 55.67 38.01 C53.92 38.01 52.16 38 50.41 38 C48.02 37.99 45.63 37.99 43.24 38 C42.54 38 41.84 37.99 41.12 37.99 C37.16 37.92 37.16 37.92 34.1 40.25 Z " fill="#b08e64" transform="translate(5.901549875736237,171.7504523396492)"/>
<path d="M0 0 C4.06 0.05 6.35 0.1 9.44 2.77 C13.19 7.1 16.19 11.94 19.18 16.81 C21.36 20.34 23.75 23.72 26.12 27.12 C27.03 28.45 27.93 29.77 28.83 31.09 C30.82 34.01 32.85 36.9 34.89 39.78 C42.47 50.5 49.78 61.38 56.91 72.41 C61.17 78.98 61.17 78.98 65.68 85.39 C67.69 88.25 67.69 88.25 67.69 90.25 C68.35 90.25 69.01 90.25 69.69 90.25 C70.02 90.91 70.35 91.57 70.69 92.25 C71.18 90.76 71.18 90.76 71.69 89.25 C71.03 88.92 70.37 88.59 69.69 88.25 C69.77 77.2 69.87 66.15 69.98 55.11 C70.03 49.98 70.07 44.85 70.11 39.72 C70.15 34.77 70.19 29.82 70.25 24.88 C70.26 22.98 70.28 21.09 70.29 19.2 C70.31 16.56 70.34 13.92 70.37 11.28 C70.37 10.49 70.37 9.7 70.38 8.89 C70.46 3.48 70.46 3.48 72.69 1.25 C75.23 1.05 77.64 0.97 80.19 1 C80.88 0.99 81.57 0.98 82.28 0.98 C87.43 1 87.43 1 89.69 3.25 C89.93 5.51 89.93 5.51 89.93 8.39 C89.93 9.48 89.93 10.56 89.94 11.69 C89.93 13.48 89.93 13.48 89.91 15.32 C89.91 16.58 89.92 17.84 89.92 19.13 C89.92 22.59 89.9 26.05 89.89 29.5 C89.88 33.11 89.88 36.72 89.87 40.33 C89.87 47.17 89.85 54.01 89.83 60.85 C89.81 68.63 89.8 76.42 89.79 84.2 C89.77 100.22 89.73 116.23 89.69 132.25 C87.12 132.39 84.57 132.48 82 132.56 C81.28 132.6 80.56 132.65 79.81 132.69 C75.66 132.78 74.17 132.64 70.81 129.93 C64.69 122.21 64.69 122.21 64.69 119.25 C64.03 119.25 63.37 119.25 62.69 119.25 C61.43 117.63 61.43 117.63 60 115.38 C57.83 112.01 55.62 108.7 53.31 105.44 C50.11 100.88 47.02 96.26 43.97 91.6 C42.04 88.7 39.98 85.91 37.91 83.1 C33.74 77.38 29.84 71.51 26 65.56 C25.36 64.58 24.73 63.6 24.07 62.59 C22.83 60.69 21.6 58.79 20.38 56.88 C19.3 55.2 18.21 53.53 17.12 51.87 C16.66 51.16 16.2 50.46 15.73 49.73 C15.33 49.12 14.93 48.52 14.52 47.9 C13.69 46.25 13.69 46.25 13.69 43.25 C13.03 43.25 12.37 43.25 11.69 43.25 C11.36 42.59 11.03 41.93 10.69 41.25 C10.36 71.28 10.03 101.31 9.69 132.25 C4.08 132.25 -1.53 132.25 -7.31 132.25 C-8.98 130.58 -8.44 128.58 -8.45 126.28 C-8.45 125.21 -8.45 124.13 -8.46 123.02 C-8.46 121.83 -8.46 120.64 -8.46 119.42 C-8.46 118.17 -8.46 116.93 -8.47 115.64 C-8.48 112.22 -8.48 108.79 -8.48 105.37 C-8.48 102.51 -8.48 99.66 -8.49 96.8 C-8.5 90.07 -8.5 83.33 -8.5 76.6 C-8.5 69.64 -8.51 62.68 -8.52 55.73 C-8.54 49.76 -8.54 43.8 -8.54 37.83 C-8.54 34.27 -8.54 30.7 -8.55 27.14 C-8.57 23.16 -8.56 19.19 -8.56 15.21 C-8.56 13.43 -8.56 13.43 -8.57 11.61 C-8.57 10.53 -8.56 9.45 -8.56 8.34 C-8.56 7.4 -8.56 6.46 -8.56 5.49 C-8.02 0.59 -4.21 0.51 0 0 Z " fill="#b08e64" transform="translate(347.3125,207.75)"/>
<path d="M0 0 C4.06 0.05 6.35 0.1 9.44 2.77 C13.19 7.1 16.19 11.94 19.18 16.81 C21.36 20.34 23.75 23.72 26.12 27.12 C27.03 28.45 27.93 29.77 28.83 31.09 C30.82 34.01 32.85 36.9 34.89 39.78 C42.47 50.5 49.78 61.38 56.91 72.41 C61.17 78.98 61.17 78.98 65.68 85.39 C67.69 88.25 67.69 88.25 67.69 90.25 C68.35 90.25 69.01 90.25 69.69 90.25 C70.02 90.91 70.35 91.57 70.69 92.25 C71.18 90.76 71.18 90.76 71.69 89.25 C71.03 88.92 70.37 88.59 69.69 88.25 C69.77 77.2 69.87 66.15 69.98 55.11 C70.03 49.98 70.07 44.85 70.11 39.72 C70.15 34.77 70.19 29.82 70.25 24.88 C70.26 22.98 70.28 21.09 70.29 19.2 C70.31 16.56 70.34 13.92 70.37 11.28 C70.37 10.49 70.37 9.7 70.38 8.89 C70.46 3.48 70.46 3.48 72.69 1.25 C75.23 1.05 77.64 0.97 80.19 1 C80.88 0.99 81.57 0.98 82.28 0.98 C87.43 1 87.43 1 89.69 3.25 C89.93 5.51 89.93 5.51 89.93 8.39 C89.93 9.48 89.93 10.56 89.94 11.69 C89.93 13.48 89.93 13.48 89.91 15.32 C89.91 16.58 89.92 17.84 89.92 19.13 C89.92 22.59 89.9 26.05 89.89 29.5 C89.88 33.11 89.88 36.72 89.87 40.33 C89.87 47.17 89.85 54.01 89.83 60.85 C89.81 68.63 89.8 76.42 89.79 84.2 C89.77 100.22 89.73 116.23 89.69 132.25 C87.12 132.39 84.57 132.48 82 132.56 C81.28 132.6 80.56 132.65 79.81 132.69 C75.66 132.78 74.17 132.64 70.81 129.93 C64.69 122.21 64.69 122.21 64.69 119.25 C64.03 119.25 63.37 119.25 62.69 119.25 C61.43 117.63 61.43 117.63 60 115.38 C57.83 112.01 55.62 108.7 53.31 105.44 C50.73 101.77 48.22 98.06 45.75 94.31 C43.26 90.55 40.7 86.87 38 83.25 C32.37 75.59 27.3 67.54 22.17 59.54 C20.89 57.56 19.6 55.59 18.3 53.62 C17.66 52.65 17.03 51.68 16.38 50.69 C15.84 49.88 15.31 49.08 14.76 48.25 C13.69 46.25 13.69 46.25 13.69 43.25 C13.03 43.25 12.37 43.25 11.69 43.25 C11.36 42.59 11.03 41.93 10.69 41.25 C10.36 71.28 10.03 101.31 9.69 132.25 C4.08 132.25 -1.53 132.25 -7.31 132.25 C-8.98 130.58 -8.44 128.58 -8.45 126.28 C-8.45 125.21 -8.45 124.13 -8.46 123.02 C-8.46 121.83 -8.46 120.64 -8.46 119.42 C-8.46 118.17 -8.46 116.93 -8.47 115.64 C-8.48 112.22 -8.48 108.79 -8.48 105.37 C-8.48 102.51 -8.48 99.66 -8.49 96.8 C-8.5 90.07 -8.5 83.33 -8.5 76.6 C-8.5 69.64 -8.51 62.68 -8.52 55.73 C-8.54 49.76 -8.54 43.8 -8.54 37.83 C-8.54 34.27 -8.54 30.7 -8.55 27.14 C-8.57 23.16 -8.56 19.19 -8.56 15.21 C-8.56 13.43 -8.56 13.43 -8.57 11.61 C-8.57 10.53 -8.56 9.45 -8.56 8.34 C-8.56 7.4 -8.56 6.46 -8.56 5.49 C-8.02 0.59 -4.21 0.51 0 0 Z " fill="#b08e64" transform="translate(800.3125,207.75)"/>
<path d="M0 0 C15.11 10.92 22.67 28.59 25.93 46.37 C28.08 68.56 24.81 91.29 10.52 109.04 C0.11 120.85 -11.83 125.8 -27.39 126.87 C-41.57 127.34 -51.97 123.8 -62.76 114.62 C-63.55 113.98 -64.34 113.33 -65.16 112.66 C-76.08 102.9 -80.85 88.59 -83.76 74.62 C-83.91 73.91 -84.06 73.2 -84.21 72.47 C-84.54 70.5 -84.68 68.61 -84.76 66.62 C-84.81 65.46 -84.86 64.31 -84.91 63.11 C-85.49 43.62 -80.25 24.34 -67.66 9.08 C-49.43 -10.12 -22.39 -14.34 0 0 Z M-42.76 14.62 C-43.81 15.16 -44.86 15.69 -45.95 16.25 C-55.56 24.37 -59.61 38.52 -60.76 50.62 C-61.73 67.06 -60.15 85.69 -49.57 99.06 C-43.47 105.33 -37.3 107.9 -28.57 108.12 C-21.11 107.82 -15.92 106.38 -10.23 101.23 C-1.37 91.52 1.77 77.47 2.24 64.62 C2.28 63.7 2.32 62.78 2.36 61.84 C2.71 46.53 0.47 29.57 -10.35 17.9 C-16.47 12.23 -22.91 10 -31.24 10.27 C-35.51 10.87 -39.01 12.55 -42.76 14.62 Z " fill="#b08e64" transform="translate(752.7578125,215.37890625)"/>
<path d="M0 0 C14.28 13.31 21.52 31.93 22.59 51.14 C23.29 73.04 18.32 93.58 3.3 109.96 C-6.1 118.81 -16.67 123.07 -29.51 123.71 C-30.3 123.76 -31.1 123.8 -31.92 123.84 C-47.59 124.45 -59.35 118.31 -70.93 107.97 C-81.77 96.86 -88.04 78.34 -88.7 62.96 C-88.75 61.88 -88.8 60.8 -88.85 59.68 C-89.19 45.89 -86.71 33.43 -80.7 20.96 C-80.33 20.18 -79.96 19.39 -79.58 18.57 C-72.45 4.51 -60.24 -4.66 -45.7 -10.04 C-29.15 -14.59 -13.43 -10.14 0 0 Z M-52.7 15.96 C-64.68 33.08 -66.63 52.24 -63.38 72.54 C-60.98 84.52 -56.84 94.51 -46.72 101.77 C-39.77 105.86 -32.11 106.09 -24.28 104.46 C-16.41 101.79 -12.06 96.91 -8.08 89.91 C-4.28 81.84 -2.02 72.88 -1.7 63.96 C-1.64 62.72 -1.59 61.48 -1.54 60.2 C-1.08 43.75 -2.91 27.03 -14.57 14.4 C-20.71 8.82 -26.65 7.37 -34.88 7.61 C-41.46 8.44 -48.1 11.12 -52.7 15.96 Z " fill="#b08e64" transform="translate(604.6953125,387.03515625)"/>
<path d="M0 0 C1.23 0.01 1.23 0.01 2.49 0.01 C3.38 0.01 4.27 0.02 5.19 0.02 C6.12 0.03 7.05 0.04 8.02 0.06 C9.42 0.06 9.42 0.06 10.85 0.06 C17.81 0.1 17.81 0.1 18.95 1.24 C19.08 2.75 19.13 4.25 19.16 5.76 C19.18 6.72 19.2 7.68 19.22 8.67 C19.24 9.72 19.25 10.76 19.27 11.84 C19.29 12.9 19.31 13.97 19.33 15.06 C19.4 18.48 19.46 21.89 19.52 25.31 C19.56 27.61 19.6 29.92 19.65 32.23 C19.75 37.9 19.86 43.57 19.95 49.24 C22.26 50.4 23.56 50.36 26.13 50.36 C26.99 50.36 27.85 50.36 28.74 50.36 C29.67 50.35 30.6 50.35 31.55 50.34 C32.51 50.34 33.46 50.34 34.44 50.34 C37.48 50.33 40.53 50.32 43.58 50.31 C45.64 50.3 47.7 50.3 49.77 50.29 C54.83 50.28 59.89 50.26 64.95 50.24 C64.95 49.65 64.94 49.05 64.94 48.43 C64.9 42.24 64.87 36.04 64.84 29.84 C64.83 27.53 64.82 25.22 64.8 22.9 C64.78 19.58 64.77 16.26 64.76 12.94 C64.75 11.9 64.74 10.86 64.73 9.79 C64.73 8.83 64.73 7.87 64.73 6.88 C64.72 6.03 64.72 5.18 64.71 4.31 C64.95 2.24 64.95 2.24 66.95 0.24 C68.89 0 68.89 0 71.23 0.01 C72.08 0.01 72.92 0.02 73.78 0.02 C75.11 0.04 75.11 0.04 76.45 0.06 C77.77 0.06 77.77 0.06 79.12 0.06 C85.67 0.1 85.67 0.1 87.95 1.24 C87.95 44.14 87.95 87.04 87.95 131.24 C80.69 131.24 73.43 131.24 65.95 131.24 C64.62 128.58 64.79 126.49 64.75 123.51 C64.72 121.71 64.72 121.71 64.69 119.87 C64.67 118.57 64.65 117.26 64.64 115.92 C64.62 114.58 64.59 113.24 64.57 111.9 C64.52 108.36 64.47 104.83 64.42 101.29 C64.37 97.69 64.31 94.08 64.26 90.47 C64.15 83.4 64.05 76.32 63.95 69.24 C57.85 69.22 51.74 69.2 45.64 69.19 C43.56 69.18 41.48 69.18 39.4 69.17 C36.42 69.16 33.44 69.15 30.46 69.15 C29.52 69.14 28.59 69.13 27.62 69.13 C26.76 69.13 25.9 69.13 25.01 69.13 C23.87 69.13 23.87 69.13 22.71 69.12 C20.92 69.05 20.92 69.05 19.95 70.24 C19.83 72.14 19.77 74.05 19.75 75.96 C19.73 77.18 19.71 78.4 19.69 79.66 C19.67 81 19.65 82.34 19.64 83.68 C19.62 85.05 19.59 86.42 19.57 87.78 C19.52 91.38 19.47 94.99 19.42 98.59 C19.37 102.26 19.31 105.94 19.26 109.61 C19.15 116.82 19.05 124.03 18.95 131.24 C11.69 131.24 4.43 131.24 -3.05 131.24 C-4.3 128.73 -4.18 127.01 -4.18 124.19 C-4.19 123.13 -4.19 122.06 -4.19 120.96 C-4.19 119.78 -4.19 118.6 -4.19 117.39 C-4.2 116.15 -4.2 114.92 -4.2 113.64 C-4.21 110.25 -4.21 106.86 -4.21 103.46 C-4.22 100.63 -4.22 97.8 -4.22 94.97 C-4.23 88.29 -4.23 81.62 -4.23 74.94 C-4.23 68.05 -4.24 61.15 -4.26 54.26 C-4.27 48.34 -4.28 42.43 -4.28 36.52 C-4.28 32.98 -4.28 29.45 -4.29 25.91 C-4.3 21.97 -4.3 18.04 -4.29 14.1 C-4.3 12.92 -4.3 11.74 -4.31 10.53 C-4.3 9.46 -4.3 8.39 -4.29 7.29 C-4.3 5.89 -4.3 5.89 -4.3 4.47 C-3.96 1.45 -3.06 0.36 0 0 Z " fill="#b08e64" transform="translate(1037.047119140625,377.757080078125)"/>
<path d="M0 0 C0.85 0 1.7 0 2.57 0 C3.45 -0 4.33 -0.01 5.24 -0.01 C7.1 -0.02 8.97 -0.02 10.84 -0.01 C13.66 -0.01 16.48 -0.03 19.3 -0.06 C33 -0.11 46.22 0.22 56.73 10.09 C66.02 19.97 67.31 30.47 67.1 43.45 C66.65 55.07 61.85 63.42 53.67 71.41 C48.28 76.3 48.28 76.3 45.83 76.3 C48.95 86.19 53.57 95.36 58.14 104.63 C59.46 107.32 60.78 110.02 62.1 112.71 C62.94 114.43 63.78 116.15 64.62 117.87 C65.01 118.67 65.4 119.47 65.81 120.3 C66.18 121.04 66.54 121.79 66.92 122.56 C67.24 123.21 67.56 123.86 67.9 124.54 C68.93 126.56 68.93 126.56 70.83 129.3 C70.5 129.96 70.17 130.62 69.83 131.3 C61.91 131.3 53.99 131.3 45.83 131.3 C45.83 130.64 45.83 129.98 45.83 129.3 C45.17 129.3 44.51 129.3 43.83 129.3 C41.14 123.11 38.45 116.92 35.77 110.72 C34.85 108.62 33.94 106.51 33.02 104.4 C31.71 101.38 30.4 98.35 29.08 95.32 C28.47 93.91 28.47 93.91 27.84 92.47 C27.46 91.58 27.08 90.7 26.69 89.8 C26.35 89.02 26.02 88.25 25.67 87.45 C24.87 85.42 24.31 83.44 23.83 81.3 C21.88 81.52 21.88 81.52 19.89 81.74 C19.16 81.82 18.43 81.9 17.68 81.99 C15.82 82.12 15.82 82.12 14.83 83.3 C14.71 84.81 14.65 86.32 14.62 87.82 C14.6 88.78 14.58 89.75 14.56 90.74 C14.54 92.3 14.54 92.3 14.51 93.9 C14.49 94.97 14.47 96.03 14.45 97.13 C14.39 100.54 14.33 103.95 14.27 107.37 C14.22 109.67 14.18 111.98 14.14 114.29 C14.03 119.96 13.93 125.63 13.83 131.3 C6.9 131.3 -0.03 131.3 -7.17 131.3 C-8.43 128.79 -8.3 127.07 -8.3 124.26 C-8.31 123.19 -8.31 122.12 -8.32 121.02 C-8.32 119.84 -8.32 118.66 -8.32 117.45 C-8.32 116.21 -8.32 114.98 -8.33 113.71 C-8.33 110.31 -8.34 106.92 -8.34 103.52 C-8.34 100.69 -8.34 97.86 -8.35 95.03 C-8.35 88.35 -8.36 81.68 -8.36 75 C-8.35 68.11 -8.37 61.21 -8.38 54.32 C-8.39 48.4 -8.4 42.49 -8.4 36.58 C-8.4 33.04 -8.4 29.51 -8.41 25.97 C-8.42 22.03 -8.42 18.1 -8.41 14.16 C-8.42 12.98 -8.42 11.8 -8.43 10.59 C-8.43 9.52 -8.42 8.45 -8.42 7.35 C-8.42 5.95 -8.42 5.95 -8.42 4.53 C-7.85 -0.56 -4.28 0.05 0 0 Z M13.83 20.3 C13.52 22.27 13.52 22.27 13.56 24.54 C13.55 25.41 13.54 26.29 13.53 27.19 C13.53 28.13 13.53 29.08 13.53 30.05 C13.53 31.02 13.52 31.99 13.52 32.99 C13.51 35.04 13.51 37.09 13.51 39.14 C13.52 42.29 13.49 45.44 13.47 48.58 C13.47 50.57 13.47 52.56 13.47 54.55 C13.46 55.5 13.45 56.45 13.44 57.42 C13.45 58.29 13.45 59.17 13.46 60.07 C13.46 60.84 13.46 61.61 13.46 62.41 C13.58 63.03 13.7 63.66 13.83 64.3 C18.2 67.21 21.83 65.88 26.7 64.95 C32.71 63.64 37.21 61.47 40.83 56.3 C43.58 51.02 44.35 46.78 44.27 40.87 C44.26 40.12 44.25 39.37 44.25 38.6 C44.04 31.51 42.65 26.98 37.33 21.93 C32.48 18.77 29.02 17.99 23.21 18.05 C22.52 18.05 21.84 18.04 21.14 18.03 C17.03 17.94 17.03 17.94 13.83 20.3 Z " fill="#b08e64" transform="translate(763.1698913574219,377.6964569091797)"/>
<path d="M0 0 C0 0.66 0 1.32 0 2 C0.66 2 1.32 2 2 2 C1.55 7.85 -1.04 12.08 -4 17 C-4.64 16.81 -5.28 16.61 -5.94 16.41 C-7.75 15.87 -9.55 15.33 -11.36 14.8 C-13.35 14.2 -15.3 13.52 -17.25 12.81 C-29.56 10.15 -40.14 12.3 -50.81 18.69 C-60.23 25.42 -65.06 37.53 -67.31 48.56 C-69.83 65.53 -66.25 81.02 -56.81 95.31 C-47.33 104.37 -38.27 107.24 -25.4 107.17 C-22.19 107.01 -19.17 106.56 -16 106 C-16.01 104.83 -16.02 103.66 -16.03 102.45 C-16.07 98.12 -16.09 93.78 -16.11 89.45 C-16.12 87.57 -16.13 85.69 -16.15 83.81 C-16.18 81.12 -16.19 78.42 -16.2 75.73 C-16.21 74.88 -16.22 74.04 -16.23 73.17 C-16.23 71.11 -16.12 69.06 -16 67 C-14 65 -14 65 -11.95 64.76 C-11.13 64.76 -10.31 64.77 -9.46 64.77 C-8.57 64.77 -7.68 64.77 -6.76 64.78 C-5.83 64.79 -4.9 64.8 -3.94 64.81 C-3 64.81 -2.06 64.81 -1.1 64.81 C5.86 64.86 5.86 64.86 7 66 C7.09 67.69 7.12 69.38 7.11 71.07 C7.11 72.69 7.11 72.69 7.11 74.35 C7.11 75.52 7.1 76.7 7.1 77.91 C7.1 79.11 7.09 80.3 7.09 81.54 C7.09 85.38 7.08 89.22 7.06 93.06 C7.06 95.66 7.05 98.26 7.05 100.85 C7.04 107.24 7.02 113.62 7 120 C4.48 120.81 1.97 121.62 -0.55 122.42 C-1.26 122.65 -1.96 122.87 -2.69 123.11 C-20.16 128.64 -40.84 129.6 -57.66 121.35 C-73.84 112.04 -84.27 100.41 -90.13 82.55 C-90.87 79.71 -91.48 76.89 -92 74 C-92.23 72.89 -92.45 71.77 -92.69 70.62 C-94.49 49.76 -90.1 29.94 -76.97 13.39 C-58.81 -8.12 -24.13 -16.08 0 0 Z " fill="#b08e64" transform="translate(416,384)"/>
<path d="M0 0 C0 0.66 0 1.32 0 2 C0.66 2 1.32 2 2 2 C1.55 7.85 -1.04 12.08 -4 17 C-7.7 16.37 -10.95 15.29 -14.44 13.94 C-25.32 10.29 -35.73 10.93 -46 16 C-56.14 21.06 -61.37 29.98 -65.22 40.4 C-70.49 58.04 -67.9 74.21 -59.76 90.47 C-55.21 98.3 -47.77 102.88 -39.62 106.5 C-31.7 107.59 -23.86 107.38 -16 106 C-16.01 104.83 -16.02 103.66 -16.03 102.45 C-16.07 98.12 -16.09 93.78 -16.11 89.45 C-16.12 87.57 -16.13 85.69 -16.15 83.81 C-16.18 81.12 -16.19 78.42 -16.2 75.73 C-16.21 74.88 -16.22 74.04 -16.23 73.17 C-16.23 71.11 -16.12 69.06 -16 67 C-14 65 -14 65 -11.95 64.76 C-11.13 64.76 -10.31 64.77 -9.46 64.77 C-8.57 64.77 -7.68 64.77 -6.76 64.78 C-5.83 64.79 -4.9 64.8 -3.94 64.81 C-3 64.81 -2.06 64.81 -1.1 64.81 C5.86 64.86 5.86 64.86 7 66 C7.09 67.69 7.12 69.38 7.11 71.07 C7.11 72.69 7.11 72.69 7.11 74.35 C7.11 75.52 7.1 76.7 7.1 77.91 C7.1 79.11 7.09 80.3 7.09 81.54 C7.09 85.38 7.08 89.22 7.06 93.06 C7.06 95.66 7.05 98.26 7.05 100.85 C7.04 107.24 7.02 113.62 7 120 C4.48 120.81 1.97 121.62 -0.55 122.42 C-1.25 122.65 -1.96 122.87 -2.68 123.11 C-20.87 128.87 -40.79 129.1 -58.25 120.88 C-73.77 112.54 -83.54 101.04 -89.23 84.4 C-95.36 63.73 -94.09 43.21 -84 24 C-81.84 20.51 -79.53 17.23 -77 14 C-76.37 13.16 -75.74 12.33 -75.1 11.47 C-57.59 -9.14 -22.6 -15.07 0 0 Z " fill="#b08e64" transform="translate(727,384)"/>
<path d="M0 0 C0.68 -0.02 1.35 -0.04 2.05 -0.06 C4.03 -0.06 4.03 -0.06 7.5 0.44 C10.22 3.31 11.31 6.31 12.48 10.05 C13.03 11.75 13.03 11.75 13.58 13.5 C14.16 15.36 14.16 15.36 14.75 17.26 C15.17 18.58 15.59 19.9 16.01 21.22 C17.13 24.78 18.25 28.34 19.37 31.91 C20.53 35.61 21.7 39.32 22.87 43.03 C24.31 47.59 25.75 52.16 27.18 56.73 C30.18 66.27 33.2 75.8 36.24 85.32 C37.7 89.9 39.16 94.49 40.62 99.07 C41.41 101.56 42.21 104.05 43.01 106.54 C44.11 109.99 45.21 113.44 46.3 116.9 C46.63 117.92 46.95 118.93 47.29 119.98 C47.59 120.91 47.88 121.84 48.18 122.8 C48.44 123.6 48.69 124.41 48.96 125.24 C49.5 127.44 49.5 127.44 49.5 131.44 C41.58 131.44 33.66 131.44 25.5 131.44 C23.61 127.02 22.01 123.17 20.71 118.64 C20.41 117.6 20.11 116.56 19.8 115.49 C19.49 114.42 19.19 113.35 18.88 112.25 C18.56 111.17 18.25 110.09 17.93 108.98 C16.73 104.81 15.55 100.65 14.5 96.44 C2.29 96.77 -9.92 97.1 -22.5 97.44 C-25.9 105.05 -25.9 105.05 -28.64 112.79 C-28.99 113.88 -29.34 114.98 -29.7 116.12 C-30.04 117.23 -30.39 118.35 -30.75 119.5 C-31.11 120.65 -31.48 121.8 -31.85 122.99 C-32.74 125.8 -33.62 128.62 -34.5 131.44 C-40.77 131.77 -47.04 132.1 -53.5 132.44 C-54.63 129.04 -54.39 128.4 -53.25 125.15 C-52.79 123.84 -52.79 123.84 -52.33 122.5 C-51.99 121.54 -51.65 120.58 -51.29 119.6 C-50.94 118.59 -50.59 117.58 -50.23 116.54 C-49.05 113.19 -47.87 109.85 -46.69 106.5 C-45.87 104.17 -45.05 101.83 -44.23 99.5 C-42.53 94.62 -40.81 89.74 -39.1 84.86 C-36.57 77.64 -34.07 70.42 -31.57 63.19 C-30.98 61.47 -30.98 61.47 -30.37 59.71 C-28.84 55.26 -27.3 50.81 -25.77 46.36 C-23.37 39.38 -20.94 32.4 -18.5 25.44 C-18.14 24.4 -17.78 23.37 -17.41 22.31 C-16.34 19.24 -15.25 16.18 -14.16 13.12 C-13.84 12.19 -13.52 11.25 -13.18 10.29 C-12.87 9.44 -12.57 8.58 -12.25 7.69 C-11.98 6.94 -11.72 6.19 -11.44 5.41 C-8.89 0.06 -5.52 -0.06 0 0 Z M-4.5 31.44 C-4.68 32.12 -4.86 32.79 -5.05 33.49 C-8.49 46.4 -11.96 59.29 -15.72 72.11 C-15.96 72.92 -16.19 73.73 -16.43 74.56 C-16.64 75.27 -16.85 75.97 -17.06 76.7 C-17.58 78.46 -17.58 78.46 -17.5 80.44 C-8.26 80.11 0.98 79.78 10.5 79.44 C9.28 73.32 8.05 67.4 6.37 61.42 C6.18 60.71 5.98 60.01 5.78 59.28 C5.17 57.06 4.55 54.84 3.94 52.62 C3.32 50.39 2.7 48.15 2.08 45.92 C1.7 44.54 1.32 43.16 0.93 41.78 C-0.01 38.35 -0.86 34.94 -1.5 31.44 C-2.49 31.44 -3.48 31.44 -4.5 31.44 Z " fill="#b08e64" transform="translate(497.5,208.5625)"/>
<path d="M0 0 C1.57 0.01 3.14 0.04 4.71 0.07 C5.51 0.08 6.31 0.09 7.14 0.1 C9.12 0.12 11.1 0.16 13.09 0.2 C16.65 7.73 19.23 15.44 21.73 23.38 C22.17 24.77 22.61 26.17 23.06 27.56 C24.25 31.29 25.43 35.03 26.61 38.76 C27.83 42.63 29.06 46.5 30.29 50.37 C32.27 56.64 34.25 62.9 36.23 69.16 C38.25 75.56 40.28 81.96 42.32 88.35 C44.04 93.76 45.76 99.16 47.47 104.57 C48.17 106.77 48.87 108.98 49.58 111.19 C50.55 114.21 51.5 117.24 52.46 120.27 C52.74 121.16 53.03 122.04 53.32 122.96 C55.2 128.97 55.2 128.97 54.09 131.2 C50.29 131.06 46.5 130.91 42.71 130.76 C41.63 130.72 40.55 130.68 39.44 130.64 C38.41 130.6 37.38 130.55 36.31 130.51 C34.88 130.46 34.88 130.46 33.42 130.4 C31.09 130.2 31.09 130.2 29.09 129.2 C28.28 126.93 27.59 124.7 26.96 122.39 C26.76 121.7 26.57 121.02 26.37 120.32 C25.75 118.13 25.13 115.95 24.52 113.76 C23.91 111.57 23.29 109.39 22.67 107.21 C22.28 105.85 21.9 104.48 21.52 103.12 C20.53 99.58 20.53 99.58 19.09 96.2 C6.88 96.2 -5.33 96.2 -17.91 96.2 C-21.16 104.27 -21.16 104.27 -24.05 112.42 C-24.4 113.47 -24.75 114.52 -25.11 115.61 C-25.46 116.67 -25.81 117.73 -26.16 118.82 C-26.53 119.92 -26.89 121.02 -27.27 122.15 C-28.15 124.83 -29.03 127.51 -29.91 130.2 C-36.18 130.2 -42.45 130.2 -48.91 130.2 C-46.66 120.07 -46.66 120.07 -45.46 116.54 C-45.18 115.74 -44.91 114.94 -44.63 114.11 C-44.34 113.26 -44.05 112.42 -43.75 111.55 C-43.28 110.18 -43.28 110.18 -42.8 108.78 C-41.78 105.79 -40.75 102.81 -39.73 99.82 C-39.01 97.72 -38.29 95.62 -37.57 93.53 C-32.16 77.74 -26.69 61.98 -21.17 46.23 C-18.36 38.21 -15.56 30.19 -12.82 22.14 C-12.59 21.44 -12.35 20.75 -12.11 20.03 C-11.03 16.86 -9.95 13.68 -8.88 10.49 C-8.33 8.87 -8.33 8.87 -7.77 7.22 C-7.46 6.29 -7.14 5.36 -6.82 4.4 C-5.2 0.45 -4.34 0.22 0 0 Z M2.09 28.2 C-1.2 35.03 -2.97 42.27 -4.91 49.57 C-9.06 65.02 -9.06 65.02 -11.4 71.25 C-12.13 73.67 -12.13 73.67 -11.91 78.2 C-2.34 78.53 7.23 78.86 17.09 79.2 C16.24 76.6 15.39 74 14.52 71.32 C11.89 63.07 9.53 54.75 7.27 46.38 C6.97 45.27 6.67 44.15 6.36 43.01 C5.04 38.08 3.87 33.24 3.09 28.2 C2.76 28.2 2.43 28.2 2.09 28.2 Z " fill="#b08e64" transform="translate(945.9140625,209.8046875)"/>
<path d="M0 0 C1.57 0.01 3.14 0.04 4.71 0.07 C5.51 0.08 6.31 0.09 7.14 0.1 C9.12 0.12 11.1 0.16 13.09 0.2 C16.08 7.39 18.63 14.66 21 22.07 C21.37 23.22 21.74 24.36 22.11 25.53 C23.11 28.63 24.1 31.73 25.09 34.83 C25.92 37.42 26.76 40.01 27.59 42.61 C30.43 51.47 33.26 60.33 36.09 69.2 C36.41 70.22 36.41 70.22 36.75 71.27 C39.51 79.94 42.27 88.62 45.02 97.3 C45.81 99.81 46.61 102.31 47.4 104.82 C48.51 108.32 49.62 111.82 50.72 115.31 C51.05 116.35 51.38 117.38 51.71 118.45 C52.16 119.87 52.16 119.87 52.62 121.33 C52.88 122.16 53.14 122.98 53.41 123.83 C54.11 126.27 54.62 128.7 55.09 131.2 C51.5 131.25 47.92 131.29 44.34 131.32 C43.32 131.34 42.3 131.35 41.26 131.37 C40.28 131.38 39.3 131.38 38.29 131.39 C37.39 131.4 36.49 131.41 35.56 131.42 C32.75 131.16 31.33 130.94 29.09 129.2 C28.11 126.84 27.4 124.73 26.76 122.29 C26.57 121.61 26.38 120.93 26.18 120.23 C25.57 118.05 24.98 115.87 24.4 113.7 C23.8 111.52 23.19 109.34 22.58 107.16 C22.21 105.81 21.84 104.45 21.47 103.1 C20.51 99.56 20.51 99.56 19.09 96.2 C6.88 96.2 -5.33 96.2 -17.91 96.2 C-21.16 104.27 -21.16 104.27 -24.05 112.42 C-24.4 113.47 -24.75 114.52 -25.11 115.61 C-25.46 116.67 -25.81 117.73 -26.16 118.82 C-26.53 119.92 -26.89 121.02 -27.27 122.15 C-28.15 124.83 -29.03 127.51 -29.91 130.2 C-33.67 130.88 -37.28 131.35 -41.1 131.38 C-41.94 131.4 -42.78 131.41 -43.64 131.43 C-45.91 131.2 -45.91 131.2 -48.91 129.2 C-46.32 118.65 -42.69 108.45 -39.16 98.2 C-38.5 96.25 -37.83 94.3 -37.17 92.36 C-31.91 77.01 -26.58 61.69 -21.22 46.38 C-18.39 38.31 -15.57 30.23 -12.82 22.12 C-12.58 21.43 -12.35 20.74 -12.11 20.02 C-11.02 16.85 -9.95 13.67 -8.88 10.49 C-8.51 9.41 -8.15 8.33 -7.77 7.22 C-7.46 6.29 -7.14 5.36 -6.82 4.4 C-5.2 0.45 -4.34 0.22 0 0 Z M2.09 29.2 C2.09 29.86 2.09 30.52 2.09 31.2 C1.43 31.2 0.77 31.2 0.09 31.2 C-0.09 31.87 -0.28 32.55 -0.46 33.25 C-3.91 46.16 -7.38 59.05 -11.14 71.87 C-11.37 72.68 -11.61 73.49 -11.85 74.32 C-12.05 75.02 -12.26 75.73 -12.47 76.45 C-13 78.22 -13 78.22 -12.91 80.2 C-3.01 80.2 6.89 80.2 17.09 80.2 C16.24 77.58 15.39 74.96 14.52 72.26 C11.96 64.2 9.57 56.09 7.27 47.95 C6.97 46.89 6.67 45.83 6.36 44.74 C4.91 39.56 3.67 34.54 3.09 29.2 C2.76 29.2 2.43 29.2 2.09 29.2 Z " fill="#b08e64" transform="translate(883.9140625,377.8046875)"/>
<path d="M0 0 C0.9 -0.01 1.8 -0.01 2.72 -0.02 C4.63 -0.03 6.54 -0.03 8.46 -0.03 C11.34 -0.04 14.22 -0.08 17.1 -0.11 C29.34 -0.19 42.25 -0.09 52.07 8.34 C61.46 17.64 64.26 26.02 64.39 38.96 C64.43 40.38 64.43 40.38 64.47 41.83 C64.58 53.6 59.89 62.41 51.95 70.9 C45.4 77.32 37.78 81.25 28.56 81.62 C27.3 81.67 27.3 81.67 26.02 81.73 C24.25 81.8 22.49 81.87 20.72 81.94 C19.47 82 19.47 82 18.19 82.05 C17.42 82.08 16.66 82.12 15.87 82.15 C14.05 82.15 14.05 82.15 13.07 83.34 C12.95 84.81 12.9 86.29 12.87 87.76 C12.85 88.7 12.83 89.65 12.81 90.62 C12.78 92.15 12.78 92.15 12.76 93.71 C12.74 94.76 12.72 95.8 12.69 96.87 C12.63 100.21 12.57 103.56 12.51 106.9 C12.47 109.16 12.42 111.42 12.38 113.68 C12.27 119.23 12.17 124.78 12.07 130.34 C7.8 131.26 3.83 131.5 -0.55 131.52 C-1.86 131.54 -3.18 131.55 -4.53 131.57 C-7.93 131.34 -7.93 131.34 -10.93 129.34 C-11.3 127.11 -11.3 127.11 -11.3 124.29 C-11.31 123.22 -11.31 122.15 -11.32 121.05 C-11.31 119.87 -11.31 118.7 -11.3 117.48 C-11.3 116.25 -11.31 115.01 -11.31 113.74 C-11.32 110.34 -11.31 106.95 -11.3 103.55 C-11.28 100.01 -11.29 96.46 -11.29 92.91 C-11.29 86.95 -11.28 80.99 -11.26 75.03 C-11.24 68.14 -11.24 61.25 -11.24 54.35 C-11.25 47.73 -11.24 41.1 -11.23 34.47 C-11.23 31.65 -11.23 28.83 -11.23 26.01 C-11.23 22.07 -11.22 18.13 -11.2 14.19 C-11.2 13.01 -11.21 11.84 -11.21 10.62 C-11.2 9.55 -11.19 8.49 -11.19 7.38 C-11.18 6.45 -11.18 5.52 -11.18 4.56 C-10.5 -1.38 -4.62 0.01 0 0 Z M12.07 20.34 C11.78 22.31 11.78 22.31 11.83 24.59 C11.83 25.46 11.83 26.34 11.82 27.25 C11.83 28.19 11.84 29.14 11.84 30.12 C11.84 31.09 11.84 32.06 11.85 33.06 C11.85 35.12 11.86 37.18 11.87 39.23 C11.89 42.39 11.89 45.55 11.89 48.71 C11.89 50.7 11.9 52.69 11.91 54.68 C11.91 55.63 11.91 56.59 11.91 57.57 C11.92 58.44 11.92 59.31 11.93 60.22 C11.93 60.99 11.94 61.76 11.94 62.56 C11.88 64.36 11.88 64.36 13.07 65.34 C24.88 65.48 24.88 65.48 35.07 60.34 C42.22 52.23 42.85 44.85 42.29 34.36 C41.71 28.92 39.17 25.51 35.49 21.69 C30.06 17.39 23.86 17.85 17.27 17.96 C13.99 18.01 13.99 18.01 12.07 20.34 Z " fill="#b08e64" transform="translate(956.92578125,377.6640625)"/>
<path d="M0 0 C0.98 0 1.97 0 2.98 0 C4.1 0 5.21 -0 6.36 -0.01 C8.17 0.01 8.17 0.01 10.02 0.02 C11.26 0.02 12.49 0.02 13.77 0.02 C17.05 0.02 20.34 0.03 23.63 0.05 C26.97 0.07 30.32 0.06 33.66 0.06 C36.2 0.07 38.74 0.07 41.27 0.08 C43.08 0.08 43.08 0.08 44.93 0.08 C46.05 0.09 47.16 0.1 48.31 0.1 C49.3 0.11 50.28 0.11 51.29 0.11 C53.65 0.25 53.65 0.25 55.65 1.25 C55.65 6.86 55.65 12.47 55.65 18.25 C51.87 18.34 51.87 18.34 48.03 18.43 C45.6 18.49 43.17 18.56 40.75 18.62 C39.06 18.66 37.37 18.7 35.68 18.74 C33.25 18.8 30.83 18.87 28.4 18.93 C27.26 18.96 27.26 18.96 26.1 18.98 C22.58 18.77 22.58 18.77 19.65 20.25 C19.56 22.62 19.53 24.97 19.55 27.34 C19.55 28.41 19.55 28.41 19.55 29.49 C19.56 31.77 19.57 34.04 19.58 36.31 C19.59 37.85 19.59 39.38 19.6 40.92 C19.61 44.7 19.63 48.47 19.65 52.25 C22.6 53.72 25.58 53.35 28.81 53.31 C29.51 53.31 30.22 53.3 30.94 53.3 C33.2 53.29 35.45 53.27 37.71 53.25 C40.68 53.22 43.65 53.2 46.62 53.18 C47.65 53.17 47.65 53.17 48.71 53.16 C50.35 53.15 52 53.19 53.65 53.25 C54.65 54.25 54.65 54.25 54.74 58.06 C54.74 59.65 54.73 61.23 54.71 62.81 C54.7 63.62 54.7 64.42 54.7 65.25 C54.68 67.25 54.67 69.25 54.65 71.25 C53.11 71.28 53.11 71.28 51.54 71.32 C47.75 71.42 43.96 71.52 40.18 71.62 C38.53 71.66 36.89 71.7 35.25 71.74 C32.89 71.8 30.54 71.87 28.18 71.93 C27.44 71.95 26.71 71.96 25.94 71.98 C22.5 71.78 22.5 71.78 19.65 73.25 C19.56 76.13 19.53 78.99 19.55 81.88 C19.55 83.17 19.55 83.17 19.55 84.5 C19.56 87.27 19.57 90.04 19.58 92.81 C19.59 94.68 19.59 96.56 19.6 98.43 C19.61 103.04 19.63 107.64 19.65 112.25 C22.97 113.91 26.69 113.35 30.34 113.31 C31.63 113.3 31.63 113.3 32.95 113.3 C35.7 113.29 38.45 113.27 41.21 113.25 C44.84 113.22 48.46 113.2 52.09 113.18 C52.93 113.18 53.77 113.17 54.64 113.16 C56.64 113.15 58.64 113.19 60.65 113.25 C64.9 117.5 61.65 125.24 61.65 131.25 C40.2 131.25 18.75 131.25 -3.35 131.25 C-4.61 128.73 -4.48 127.01 -4.49 124.2 C-4.49 123.13 -4.5 122.06 -4.5 120.96 C-4.5 119.78 -4.5 118.61 -4.5 117.39 C-4.5 116.16 -4.51 114.92 -4.51 113.65 C-4.52 110.25 -4.52 106.86 -4.52 103.47 C-4.52 100.63 -4.52 97.8 -4.53 94.97 C-4.54 88.3 -4.54 81.62 -4.54 74.95 C-4.54 68.05 -4.55 61.16 -4.56 54.26 C-4.58 48.35 -4.58 42.43 -4.58 36.52 C-4.58 32.99 -4.58 29.45 -4.6 25.92 C-4.61 21.98 -4.6 18.04 -4.6 14.1 C-4.6 12.92 -4.61 11.75 -4.61 10.53 C-4.61 9.46 -4.6 8.4 -4.6 7.3 C-4.6 5.9 -4.6 5.9 -4.6 4.47 C-4.24 1.23 -3.22 0.34 0 0 Z " fill="#b08e64" transform="translate(447.35302734375,377.7527618408203)"/>
<path d="M0 0 C0.99 0.99 0.99 0.99 2 2 C1.74 8.16 -0.58 13.39 -3 19 C-3.71 18.66 -4.43 18.32 -5.16 17.98 C-16.45 12.72 -26.63 9.51 -38.88 13.75 C-49.45 18.08 -55.95 24.88 -61 35 C-67.34 50.28 -67.75 66.99 -61.62 82.38 C-56.36 94.1 -48.88 101.11 -37 106 C-27.61 109.04 -17.63 107.07 -8.64 103.78 C-6 103 -6 103 -3 104 C-1.83 106.33 -1.83 106.33 -0.81 109.25 C-0.47 110.2 -0.12 111.16 0.23 112.14 C0.98 114.91 1.15 117.15 1 120 C-0.83 120.8 -2.66 121.59 -4.5 122.38 C-5.52 122.82 -6.54 123.26 -7.59 123.71 C-14.13 126.18 -20.14 127.37 -27.12 127.31 C-28.23 127.31 -28.23 127.31 -29.35 127.3 C-47.12 126.92 -61.69 120.24 -74.29 107.72 C-87.15 92.78 -92.06 72.66 -90.75 53.29 C-88.33 33.74 -79.91 16.96 -64.75 4.25 C-45.49 -9.93 -20.65 -12.47 0 0 Z " fill="#b08e64" transform="translate(1273,384)"/>
<path d="M0 0 C0.81 0.01 1.63 0.01 2.47 0.02 C3.32 0.02 4.18 0.01 5.06 0.01 C7.91 0.01 10.75 0.02 13.59 0.03 C15.56 0.03 17.52 0.03 19.49 0.03 C23.62 0.03 27.74 0.04 31.87 0.05 C37.17 0.07 42.48 0.07 47.78 0.07 C51.84 0.07 55.91 0.08 59.97 0.09 C61.92 0.09 63.88 0.09 65.84 0.09 C68.56 0.1 71.29 0.1 74.02 0.11 C74.83 0.11 75.65 0.11 76.49 0.11 C82.06 0.15 82.06 0.15 83.18 1.26 C83.25 3.96 83.27 6.63 83.24 9.32 C83.24 10.08 83.23 10.84 83.23 11.62 C83.21 13.5 83.2 15.38 83.18 17.26 C82.21 17.29 81.25 17.31 80.26 17.34 C76.69 17.43 73.13 17.53 69.56 17.63 C68.02 17.68 66.47 17.72 64.92 17.76 C62.71 17.81 60.49 17.88 58.28 17.94 C57.58 17.96 56.89 17.98 56.17 17.99 C52.89 17.82 52.89 17.82 50.18 19.26 C50.07 20.7 50.03 22.15 50.02 23.59 C50 25 50 25 49.99 26.43 C49.98 27.46 49.98 28.5 49.97 29.56 C49.96 30.65 49.95 31.73 49.94 32.84 C49.91 36.44 49.89 40.04 49.86 43.64 C49.84 46.13 49.82 48.61 49.8 51.1 C49.75 56.99 49.7 62.88 49.66 68.77 C49.61 76.13 49.55 83.49 49.48 90.85 C49.38 103.99 49.28 117.12 49.18 130.26 C45.53 130.29 41.89 130.31 38.24 130.32 C37.2 130.33 36.16 130.34 35.09 130.35 C34.1 130.35 33.11 130.35 32.09 130.36 C31.17 130.36 30.25 130.37 29.31 130.37 C27.18 130.26 27.18 130.26 26.18 129.26 C26.07 127.82 26.03 126.37 26.02 124.93 C26 123.52 26 123.52 25.99 122.09 C25.98 121.06 25.98 120.02 25.97 118.96 C25.96 117.87 25.95 116.79 25.94 115.68 C25.91 112.08 25.89 108.48 25.86 104.88 C25.84 102.39 25.82 99.91 25.8 97.42 C25.75 91.53 25.7 85.64 25.66 79.75 C25.61 72.39 25.55 65.03 25.48 57.67 C25.38 44.53 25.28 31.4 25.18 18.26 C24.21 18.23 23.25 18.21 22.26 18.18 C18.69 18.09 15.13 17.99 11.56 17.89 C10.02 17.84 8.47 17.8 6.92 17.76 C4.71 17.71 2.49 17.64 0.28 17.58 C-0.42 17.56 -1.11 17.54 -1.83 17.53 C-6.71 17.37 -6.71 17.37 -7.82 16.26 C-7.95 13.95 -8 11.64 -8.01 9.32 C-8.02 8.06 -8.04 6.79 -8.05 5.48 C-7.65 -0.22 -5.09 0.03 0 0 Z " fill="#b08e64" transform="translate(541.8223266601563,209.74005126953125)"/>
<path d="M0 0 C0.77 0 1.55 0.01 2.34 0.01 C3.6 0.02 3.6 0.02 4.89 0.02 C5.77 0.03 6.65 0.04 7.56 0.06 C8.88 0.06 8.88 0.06 10.23 0.06 C16.78 0.1 16.78 0.1 19.06 1.24 C19.56 56.19 19.56 56.19 20.06 112.24 C23.38 113.9 27.08 113.34 30.72 113.31 C31.57 113.3 32.43 113.3 33.32 113.29 C36.06 113.28 38.81 113.26 41.56 113.24 C45.18 113.22 48.79 113.2 52.4 113.18 C53.24 113.17 54.08 113.16 54.94 113.16 C60.83 113.13 60.83 113.13 63.06 114.24 C63.06 119.85 63.06 125.46 63.06 131.24 C54.47 131.27 45.88 131.28 37.3 131.29 C33.31 131.3 29.32 131.31 25.33 131.32 C21.49 131.33 17.64 131.34 13.8 131.34 C12.33 131.34 10.86 131.34 9.39 131.35 C7.34 131.36 5.28 131.36 3.23 131.36 C2.06 131.36 0.89 131.36 -0.31 131.36 C-2.94 131.24 -2.94 131.24 -3.94 130.24 C-4.04 128.59 -4.07 126.93 -4.07 125.28 C-4.08 124.2 -4.08 123.13 -4.09 122.02 C-4.09 120.83 -4.09 119.64 -4.08 118.41 C-4.09 117.17 -4.09 115.92 -4.09 114.64 C-4.1 111.21 -4.11 107.79 -4.11 104.36 C-4.11 101.5 -4.11 98.65 -4.11 95.79 C-4.12 89.06 -4.13 82.32 -4.12 75.59 C-4.12 68.63 -4.13 61.68 -4.15 54.72 C-4.16 48.76 -4.17 42.79 -4.17 36.83 C-4.17 33.26 -4.17 29.69 -4.18 26.13 C-4.19 22.15 -4.19 18.18 -4.18 14.2 C-4.19 12.42 -4.19 12.42 -4.2 10.6 C-4.2 9.53 -4.19 8.45 -4.19 7.34 C-4.19 6.4 -4.19 5.45 -4.19 4.49 C-3.86 1.53 -3.01 0.38 0 0 Z " fill="#b08e64" transform="translate(1010.939453125,208.757080078125)"/>
<path d="M0 0 C1.23 0.01 1.23 0.01 2.49 0.01 C3.38 0.01 4.27 0.02 5.19 0.02 C6.12 0.03 7.05 0.04 8.02 0.06 C9.42 0.06 9.42 0.06 10.85 0.06 C17.81 0.1 17.81 0.1 18.95 1.24 C19.05 2.93 19.07 4.61 19.07 6.3 C19.07 7.39 19.08 8.49 19.08 9.62 C19.07 10.83 19.07 12.04 19.07 13.29 C19.07 14.56 19.07 15.83 19.07 17.13 C19.07 20.62 19.06 24.11 19.05 27.6 C19.05 31.24 19.05 34.88 19.05 38.52 C19.04 45.42 19.03 52.32 19.02 59.21 C19.01 67.07 19.01 74.92 19 82.77 C18.99 98.93 18.98 115.09 18.95 131.24 C15.31 131.27 11.66 131.29 8.02 131.31 C6.97 131.31 5.93 131.32 4.86 131.33 C3.87 131.33 2.88 131.34 1.86 131.34 C0.95 131.35 0.03 131.35 -0.91 131.36 C-3.05 131.24 -3.05 131.24 -4.05 130.24 C-4.15 128.59 -4.18 126.93 -4.18 125.28 C-4.19 124.2 -4.19 123.13 -4.19 122.02 C-4.19 120.83 -4.19 119.64 -4.19 118.41 C-4.2 117.17 -4.2 115.92 -4.2 114.64 C-4.21 111.21 -4.21 107.79 -4.21 104.36 C-4.22 101.5 -4.22 98.65 -4.22 95.79 C-4.23 89.06 -4.23 82.32 -4.23 75.59 C-4.23 68.63 -4.24 61.68 -4.26 54.72 C-4.27 48.76 -4.28 42.79 -4.28 36.83 C-4.28 33.26 -4.28 29.69 -4.29 26.13 C-4.3 22.15 -4.3 18.18 -4.29 14.2 C-4.3 12.42 -4.3 12.42 -4.31 10.6 C-4.3 9.53 -4.3 8.45 -4.29 7.34 C-4.29 6.4 -4.3 5.45 -4.3 4.49 C-3.96 1.45 -3.07 0.36 0 0 Z " fill="#b08e64" transform="translate(636.047119140625,208.757080078125)"/>
<path d="M0 0 C0.78 0 1.56 0.01 2.36 0.01 C3.21 0.01 4.05 0.02 4.93 0.02 C5.81 0.03 6.7 0.04 7.61 0.06 C8.5 0.06 9.38 0.06 10.3 0.06 C16.9 0.1 16.9 0.1 18.04 1.24 C18.14 2.93 18.17 4.61 18.16 6.3 C18.17 7.39 18.17 8.49 18.17 9.62 C18.17 10.83 18.16 12.04 18.16 13.29 C18.16 14.56 18.16 15.83 18.16 17.13 C18.16 20.62 18.15 24.11 18.15 27.6 C18.14 31.24 18.14 34.88 18.14 38.52 C18.13 45.42 18.13 52.32 18.12 59.21 C18.11 67.07 18.1 74.92 18.1 82.77 C18.08 98.93 18.07 115.09 18.04 131.24 C17.48 131.24 16.91 131.23 16.33 131.23 C13.78 131.21 11.22 131.19 8.67 131.18 C7.78 131.17 6.89 131.16 5.97 131.16 C5.12 131.15 4.27 131.15 3.4 131.15 C2.61 131.14 1.83 131.13 1.02 131.13 C-1.03 131.12 -1.03 131.12 -2.96 132.24 C-3.96 129.23 -4.08 127.22 -4.09 124.07 C-4.09 123 -4.1 121.93 -4.1 120.83 C-4.1 119.66 -4.1 118.49 -4.1 117.28 C-4.1 116.04 -4.11 114.8 -4.11 113.53 C-4.12 110.14 -4.12 106.75 -4.12 103.36 C-4.12 100.53 -4.13 97.7 -4.13 94.87 C-4.14 88.21 -4.14 81.54 -4.14 74.87 C-4.14 67.98 -4.15 61.09 -4.17 54.2 C-4.18 48.29 -4.18 42.39 -4.18 36.48 C-4.18 32.95 -4.19 29.41 -4.2 25.88 C-4.21 21.95 -4.2 18.01 -4.2 14.08 C-4.2 12.9 -4.21 11.73 -4.22 10.52 C-4.21 9.45 -4.21 8.38 -4.2 7.28 C-4.2 6.35 -4.2 5.42 -4.2 4.46 C-3.87 1.51 -3.01 0.37 0 0 Z " fill="#b08e64" transform="translate(1149.955322265625,377.757080078125)"/>
</svg>
