<?xml version="1.0" encoding="UTF-8"?>
<!-- Generator: visioncortex VTracer 0.6.3 -->
<svg version="1.1" xmlns="http://www.w3.org/2000/svg" width="1280" height="403">
<path d="M0 0 C2.82 2.9 3.42 5.41 4.25 9.31 C4.91 9.31 5.57 9.31 6.25 9.31 C6.58 7.66 6.91 6.01 7.25 4.31 C7.91 4.31 8.57 4.31 9.25 4.31 C9.25 3.65 9.25 2.99 9.25 2.31 C19.1 -3.48 27.97 -5.59 39.39 -2.96 C44.96 -1.04 50.71 1.49 55.25 5.31 C55.25 5.97 55.25 6.63 55.25 7.31 C56.57 7.97 57.89 8.63 59.25 9.31 C59.25 9.97 59.25 10.63 59.25 11.31 C60.9 11.64 62.55 11.97 64.25 12.31 C64.66 11.51 65.08 10.7 65.5 9.88 C67.25 7.31 67.25 7.31 69.44 6.5 C70.04 6.44 70.63 6.38 71.25 6.31 C71.25 5.65 71.25 4.99 71.25 4.31 C71.91 4.31 72.57 4.31 73.25 4.31 C73.25 3.65 73.25 2.99 73.25 2.31 C74.46 1.68 75.66 1.06 76.88 0.44 C77.55 0.09 78.22 -0.26 78.91 -0.62 C87.23 -4.43 96.19 -5.13 105.13 -3 C112.45 -0.25 120.22 4.23 125.25 10.31 C125.58 11.3 125.91 12.29 126.25 13.31 C126.71 13.75 127.18 14.2 127.65 14.65 C129.76 16.84 130.65 19.07 131.81 21.88 C132.23 22.85 132.64 23.82 133.07 24.82 C136.3 34.36 136.58 43.75 136.59 53.73 C136.59 55.21 136.6 56.68 136.61 58.15 C136.62 61.22 136.62 64.29 136.62 67.36 C136.62 71.29 136.65 75.21 136.68 79.13 C136.7 82.17 136.71 85.2 136.71 88.24 C136.71 89.68 136.72 91.13 136.73 92.58 C136.75 94.6 136.75 96.62 136.74 98.64 C136.74 99.79 136.74 100.93 136.74 102.11 C136.14 106.03 134.67 108.21 132.25 111.31 C126.14 115.68 115.34 114.82 108.18 113.74 C103.46 112.69 100.97 111.3 98.12 107.37 C95.52 102.59 95.67 97.88 95.68 92.55 C95.66 91.52 95.65 90.5 95.63 89.44 C95.59 86.17 95.58 82.9 95.56 79.62 C95.53 76.37 95.5 73.12 95.46 69.87 C95.44 67.85 95.42 65.83 95.41 63.81 C95.38 58.8 95.22 53.8 94.89 48.8 C94.83 47.82 94.77 46.85 94.7 45.85 C94 41.9 92.47 40.59 89.25 38.31 C85.51 36.44 82.07 37.1 78.12 38.12 C73.67 41.51 72.63 46 71.25 51.31 C70.74 55.55 70.71 59.72 70.75 63.99 C70.74 65.16 70.73 66.33 70.72 67.53 C70.69 71.23 70.69 74.93 70.69 78.62 C70.68 82.34 70.67 86.06 70.65 89.77 C70.63 92.08 70.63 94.38 70.64 96.68 C70.6 102.26 70.55 106.57 67.25 111.31 C59.9 115.51 48.33 115.17 40.25 113.31 C35.83 111.06 33.26 108.86 31.25 104.31 C30.56 100.5 30.56 100.5 30.25 97.31 C29.92 97.31 29.59 97.31 29.25 97.31 C29.24 96.66 29.24 96.01 29.23 95.33 C29.17 88.54 29.08 81.74 28.99 74.94 C28.95 72.41 28.93 69.87 28.9 67.33 C28.87 63.69 28.82 60.04 28.76 56.39 C28.76 55.26 28.75 54.13 28.74 52.96 C28.72 51.9 28.7 50.84 28.68 49.75 C28.67 48.81 28.66 47.88 28.65 46.93 C28.17 43.76 27.12 41.89 25.25 39.31 C21.51 36.82 19.69 36.94 15.25 37.31 C11.92 37.94 11.92 37.94 9.25 40.31 C5.2 48.06 4.68 55.67 4.75 64.24 C4.74 65.44 4.73 66.63 4.72 67.86 C4.69 71.63 4.69 75.41 4.69 79.19 C4.68 82.99 4.67 86.78 4.65 90.58 C4.63 92.93 4.63 95.29 4.64 97.64 C4.63 98.71 4.63 99.77 4.62 100.87 C4.62 101.8 4.62 102.74 4.62 103.7 C4.17 106.85 3.08 108.73 1.25 111.31 C-5.26 115.88 -16.8 114.76 -24.37 113.87 C-28.44 112.92 -30.02 111.52 -32.75 108.31 C-35.44 102.37 -36.19 97.56 -36.14 91.09 C-36.14 90.2 -36.15 89.31 -36.15 88.4 C-36.17 85.5 -36.16 82.59 -36.15 79.69 C-36.15 77.66 -36.15 75.62 -36.16 73.59 C-36.16 69.34 -36.16 65.09 -36.14 60.84 C-36.12 55.41 -36.13 49.97 -36.15 44.54 C-36.16 40.35 -36.16 36.15 -36.15 31.96 C-36.15 29.96 -36.15 27.95 -36.16 25.95 C-36.17 23.15 -36.15 20.34 -36.14 17.54 C-36.14 16.72 -36.15 15.9 -36.16 15.06 C-36.1 9.52 -35.11 5.35 -32.75 0.31 C-24.77 -6.91 -8.54 -5.24 0 0 Z M96.25 50.31 C97.25 54.31 97.25 54.31 97.25 54.31 Z " fill="#b08e64" transform="translate(867.75,150.6875)"/>
<path d="M0 0 C4.31 4.31 5.12 7.15 5.13 13.1 C5.14 15.05 5.14 15.05 5.15 17.04 C5.15 18.49 5.15 19.94 5.15 21.39 C5.15 22.91 5.15 24.43 5.16 25.95 C5.16 30.09 5.17 34.23 5.17 38.37 C5.17 41.82 5.17 45.27 5.18 48.73 C5.18 56.87 5.19 65.01 5.19 73.15 C5.18 81.56 5.2 89.97 5.21 98.37 C5.22 105.58 5.23 112.79 5.23 120 C5.23 124.31 5.23 128.62 5.24 132.93 C5.25 136.99 5.25 141.04 5.24 145.09 C5.24 146.58 5.25 148.07 5.25 149.56 C5.26 151.59 5.25 153.62 5.25 155.65 C5.25 156.78 5.25 157.92 5.25 159.09 C5 161.98 4.59 163.6 3 166 C-2.32 169.76 -7.74 169.48 -14 169.44 C-14.97 169.46 -15.94 169.48 -16.95 169.5 C-22.9 169.49 -26.52 169.07 -31 165 C-31.33 164.01 -31.66 163.02 -32 162 C-32.99 161.67 -33.98 161.34 -35 161 C-35 161.66 -35 162.32 -35 163 C-46.57 169.94 -59.56 171.28 -72.76 168.09 C-78.86 165.66 -84.02 162.24 -89 158 C-89.67 157.48 -90.33 156.95 -91.02 156.41 C-99.57 149.45 -107.24 138.79 -110 128 C-110.12 124.62 -110.12 124.62 -110 122 C-110.66 122 -111.32 122 -112 122 C-112.03 118.23 -112.05 114.46 -112.06 110.69 C-112.07 109.62 -112.08 108.54 -112.09 107.44 C-112.09 106.41 -112.09 105.38 -112.1 104.32 C-112.1 103.38 -112.11 102.43 -112.11 101.45 C-111.94 97.77 -110.65 94.29 -109 91 C-108.64 90.03 -108.27 89.05 -107.9 88.05 C-101.64 72.21 -90.01 61.23 -74.56 54.32 C-64.39 50.55 -54.01 51.12 -44 55 C-42.22 55.85 -40.45 56.72 -38.69 57.61 C-37.37 58.28 -37.37 58.28 -36.01 58.97 C-35.35 59.31 -34.68 59.65 -34 60 C-34.01 59.35 -34.02 58.7 -34.03 58.03 C-34.12 51.25 -34.18 44.47 -34.22 37.69 C-34.24 35.16 -34.27 32.63 -34.3 30.1 C-34.35 26.46 -34.37 22.82 -34.39 19.18 C-34.42 17.49 -34.42 17.49 -34.45 15.76 C-34.45 9.53 -34.24 5.71 -30 1 C-22.6 -4.18 -8.1 -3.32 0 0 Z M-69.56 101.31 C-72.1 107.82 -73.01 113.58 -70.15 120.14 C-68.07 123.51 -65.41 125.99 -62 128 C-59.2 128.51 -59.2 128.51 -57 128 C-56.67 128.66 -56.34 129.32 -56 130 C-51.1 129.39 -46.38 128.32 -42 126 C-40.66 123.98 -40.66 123.98 -40 122 C-39.01 121.67 -38.02 121.34 -37 121 C-35.97 118.67 -35.97 118.67 -35.31 115.94 C-34.94 114.56 -34.94 114.56 -34.55 113.15 C-34.37 112.44 -34.19 111.73 -34 111 C-34.66 111 -35.32 111 -36 111 C-35.73 110.2 -35.46 109.39 -35.19 108.56 C-34.91 103.36 -36.69 99.97 -40 96 C-44.33 92.92 -49.53 91.18 -54.89 91.49 C-60.65 92.88 -66.32 96.27 -69.56 101.31 Z " fill="#b08e64" transform="translate(1187,95)"/>
<path d="M0 0 C0 0.66 0 1.32 0 2 C0.99 2.33 1.98 2.66 3 3 C3.66 3.99 4.32 4.98 5 6 C5.93 5.42 6.86 4.84 7.81 4.25 C18.2 -1.58 27.88 -3.51 39.69 -1.31 C51.37 3.32 61.15 9.09 69 19 C69.99 20.18 69.99 20.18 71 21.38 C73.09 24.12 74.6 26.84 76.12 29.94 C76.62 30.94 77.12 31.94 77.63 32.96 C82.66 44.12 84.36 61.18 80.33 72.97 C76.52 82.46 71.54 90.85 64.25 98.06 C63.72 98.59 63.19 99.11 62.65 99.65 C58.73 103.47 54.84 106.4 50 109 C49.41 109.33 48.82 109.65 48.22 109.99 C39.3 114.04 28.29 114.7 18.94 111.69 C15.52 110.33 12.27 108.67 9 107 C7.67 106.64 6.34 106.3 5 106 C5 106.67 4.99 107.34 4.99 108.02 C4.95 114.97 4.88 121.91 4.79 128.85 C4.76 131.44 4.74 134.04 4.73 136.63 C4.71 140.35 4.66 144.07 4.61 147.8 C4.61 148.96 4.61 150.12 4.61 151.31 C4.59 152.39 4.57 153.48 4.55 154.59 C4.53 156.01 4.53 156.01 4.52 157.47 C3.85 160.74 2.56 161.92 0 164 C-4.82 166.18 -9.31 166.34 -14.5 166.31 C-15.23 166.33 -15.97 166.34 -16.72 166.36 C-21.54 166.37 -24.86 165.7 -29 163 C-35.92 155.16 -35.43 143.28 -35.34 133.43 C-35.34 132.13 -35.34 130.83 -35.34 129.49 C-35.34 125.97 -35.33 122.45 -35.3 118.93 C-35.29 115.23 -35.28 111.54 -35.28 107.84 C-35.27 100.86 -35.25 93.88 -35.22 86.9 C-35.18 78.95 -35.17 70.99 -35.15 63.04 C-35.12 46.69 -35.07 30.35 -35 14 C-34.34 14 -33.68 14 -33 14 C-33.23 13.32 -33.45 12.64 -33.69 11.94 C-34.12 7.87 -32.91 5.56 -31 2 C-23.68 -5.08 -8.88 -2.9 0 0 Z M17.75 39 C16.41 39.56 16.41 39.56 15.05 40.12 C14.03 40.56 14.03 40.56 13 41 C13 41.66 13 42.32 13 43 C12.01 43.33 11.02 43.66 10 44 C7.1 48.6 5.19 53.55 6 59 C6.87 61.74 7.9 64.34 9 67 C9.66 67 10.32 67 11 67 C11 67.66 11 68.32 11 69 C11.66 69 12.32 69 13 69 C13 69.66 13 70.32 13 71 C18.86 73.28 23.7 74.55 30 74 C30.66 73.34 31.32 72.68 32 72 C33.32 71.3 34.65 70.63 36 70 C36 69.34 36 68.68 36 68 C36.66 68 37.32 68 38 68 C38 67.34 38 66.68 38 66 C38.66 66 39.32 66 40 66 C42.15 62.5 42.3 59.63 42.31 55.56 C42.33 54.45 42.35 53.34 42.36 52.19 C41.84 47.57 40.08 45.02 36.75 41.88 C30.16 37.38 25.19 35.87 17.75 39 Z M10 40 C10.33 40.99 10.66 41.98 11 43 C11.33 42.01 11.66 41.02 12 40 C11.34 40 10.68 40 10 40 Z M66 91 C63.36 93.64 60.72 96.28 58 99 C58.33 99.66 58.66 100.32 59 101 C61.97 98.03 64.94 95.06 68 92 C67.34 91.67 66.68 91.34 66 91 Z " fill="#b08e64" transform="translate(384,149)"/>
<path d="M0 0 C1.96 1.38 1.96 1.38 4.07 1.21 C4.47 0.31 4.47 0.31 4.88 -0.61 C6.7 -3.97 8.12 -5.42 11.71 -6.86 C18.89 -8.86 27.9 -9.32 34.75 -6.04 C36.45 -5.06 36.45 -5.06 38.07 -3.79 C39.09 -3.07 39.09 -3.07 40.14 -2.32 C43.09 1.55 42.62 5.2 42.57 9.95 C42.58 11.43 42.58 11.43 42.58 12.94 C42.6 16.2 42.58 19.47 42.56 22.73 C42.56 25 42.56 27.27 42.57 29.54 C42.57 34.3 42.56 39.06 42.53 43.81 C42.5 49.91 42.51 56.01 42.52 62.11 C42.53 66.79 42.52 71.48 42.51 76.17 C42.5 78.41 42.5 80.66 42.51 82.91 C42.51 86.05 42.49 89.2 42.47 92.34 C42.47 93.27 42.48 94.2 42.48 95.16 C42.43 99.99 42.24 103.3 39.07 107.21 C34.73 110.18 29.81 109.54 24.75 109.52 C23.83 109.54 22.9 109.55 21.95 109.57 C16.22 109.57 12.1 109.02 7.07 106.21 C5.13 103.52 5.13 103.52 4.07 101.21 C1.57 102.36 -0.54 103.63 -2.81 105.21 C-11.88 111.02 -24.79 110.75 -35.11 108.52 C-37.54 107.59 -39.69 106.51 -41.93 105.21 C-42.76 104.78 -43.58 104.36 -44.43 103.92 C-58.56 96.2 -69.83 81.88 -74.42 66.46 C-77.21 54.17 -77.44 39.33 -71.87 27.89 C-71.56 27.25 -71.25 26.61 -70.94 25.94 C-66.71 17.41 -61.2 8.36 -52.93 3.21 C-50.73 2.56 -50.73 2.56 -48.93 2.21 C-48.93 1.55 -48.93 0.89 -48.93 0.21 C-31.24 -9.03 -17.18 -11.05 0 0 Z M-31.5 40.32 C-34.83 45.53 -36.36 48.87 -35.93 55.21 C-34.02 60.62 -30.58 64.88 -25.93 68.21 C-20.99 70.25 -16.63 70.79 -11.56 68.96 C-10.34 68.41 -9.13 67.82 -7.93 67.21 C-7.25 66.93 -6.57 66.65 -5.88 66.37 C-3.41 64.89 -2.59 63.42 -1.25 60.89 C-0.62 59.76 -0.62 59.76 0.02 58.59 C1.11 56.12 1.64 53.87 2.07 51.21 C2.19 50.44 2.31 49.68 2.44 48.89 C1.7 43.56 -1.63 39.42 -5.5 35.83 C-15.16 29.39 -24.5 30.91 -31.5 40.32 Z " fill="#b08e64" transform="translate(772.93359375,154.79296875)"/>
<path d="M0 0 C0.66 0.33 1.32 0.66 2 1 C2 1.66 2 2.32 2 3 C2.66 3 3.32 3 4 3 C8.48 8.92 12.42 15.84 15.05 22.78 C15.79 25.16 15.79 25.16 18 26 C19.15 27.79 19.15 27.79 20.38 30.06 C20.81 30.87 21.25 31.68 21.7 32.51 C23.21 35.4 24.63 38.32 26.01 41.27 C26.93 43.06 26.93 43.06 28.43 44.4 C31.12 47.14 32.73 50.59 34.6 53.92 C35.06 54.61 35.52 55.29 36 56 C36.66 56 37.32 56 38 56 C38.1 55.31 38.19 54.63 38.29 53.92 C39.16 50.35 40.66 47.5 42.38 44.25 C44.8 39.56 46.92 34.95 48.39 29.87 C49.07 27.79 49.98 25.93 51 24 C51.66 24 52.32 24 53 24 C53.13 23.28 53.26 22.55 53.39 21.81 C55.13 13.83 58.63 6.56 64.25 0.62 C67.88 -1.52 70.94 -1.65 75 -1 C78.56 0.31 78.56 0.31 82 2 C83.13 2.39 84.27 2.78 85.44 3.19 C90.28 5.65 93.93 8.47 97 13 C99.22 20.69 95.43 27.29 92 34 C90.79 36.51 89.61 39.04 88.44 41.56 C88.13 42.21 87.83 42.86 87.52 43.52 C85.55 47.73 83.77 51.97 82.08 56.29 C78.06 66.34 73.52 76.1 68.63 85.75 C65.07 92.85 61.94 100.08 59.03 107.47 C56.15 114.56 52.85 121.44 49.31 128.22 C48.17 130.64 47.17 133.05 46.19 135.54 C43.81 141.54 41.22 147.43 38.56 153.31 C37.87 154.9 37.87 154.9 37.15 156.52 C31.95 168.03 31.95 168.03 26 171 C16.46 172.06 7.49 167.71 0 162 C-0.66 161.34 -1.32 160.68 -2 160 C-2 159.01 -2 158.02 -2 157 C-2.66 157 -3.32 157 -4 157 C-5.36 150.69 -5.36 150.69 -3.75 147.62 C-3.17 146.76 -2.6 145.89 -2 145 C-0.88 142.04 0.07 139.03 1 136 C1.66 136 2.32 136 3 136 C2.94 135.29 2.88 134.57 2.82 133.84 C3.04 130.39 4.12 128.53 5.88 125.56 C8.07 121.73 9.66 118.21 11 114 C11.44 113.24 11.88 112.48 12.33 111.7 C15.2 107.04 15.2 107.04 15.76 101.79 C14.99 99.73 14.08 97.91 13 96 C12.48 94.87 11.97 93.73 11.44 92.56 C10.26 89.89 10.26 89.89 8 89 C7.03 87.41 6.12 85.78 5.25 84.12 C4.45 82.62 4.45 82.62 3.63 81.09 C3.09 80.07 2.56 79.05 2 78 C-2.7 69.17 -7.82 60.66 -13.14 52.19 C-13.9 50.98 -14.65 49.77 -15.41 48.56 C-16.45 46.9 -17.49 45.24 -18.53 43.58 C-20 41 -20 41 -20 39 C-20.66 38.67 -21.32 38.34 -22 38 C-23.22 35.91 -24.38 33.77 -25.5 31.62 C-27.24 28.31 -28.92 25.12 -31 22 C-31.46 17.27 -31.51 14.99 -29.31 10.75 C-22.17 2.25 -11.06 -3.69 0 0 Z M-4 150 C-3 152 -3 152 -3 152 Z " fill="#b08e64" transform="translate(498,146)"/>
<path d="M0 0 C2.01 0.26 4.01 0.62 6 1 C6.77 1.12 7.54 1.25 8.34 1.38 C14.8 2.49 21.52 3.77 25.69 9.2 C28.45 15.1 28.3 22.74 26.4 28.96 C24.9 32.8 23.03 36.42 21 40 C20.34 40 19.68 40 19 40 C19 40.66 19 41.32 19 42 C11.87 44.19 7.07 43.73 -0.04 41.69 C-6.02 40.3 -11 40.98 -16.44 43.75 C-19.82 46.72 -21.77 49.26 -22.37 53.8 C-22.37 54.82 -22.37 55.84 -22.37 56.89 C-22.38 58.05 -22.38 59.21 -22.39 60.41 C-22.38 61.65 -22.38 62.9 -22.37 64.18 C-22.38 66.15 -22.4 68.12 -22.41 70.09 C-22.44 74.93 -22.44 79.77 -22.44 84.61 C-22.44 87.34 -22.45 90.06 -22.47 92.78 C-22.49 95.34 -22.49 97.89 -22.47 100.45 C-22.54 108.36 -23.18 112.22 -28.84 117.82 C-36.12 121.79 -46.61 120.1 -54.48 118.86 C-57.76 117.74 -58.94 116.83 -61 114 C-65.33 104.8 -64.42 94.4 -64.36 84.49 C-64.36 82.6 -64.36 80.7 -64.36 78.81 C-64.36 74.85 -64.35 70.9 -64.34 66.94 C-64.31 61.89 -64.31 56.83 -64.32 51.78 C-64.32 47.87 -64.32 43.96 -64.31 40.06 C-64.3 38.19 -64.3 36.33 -64.3 34.47 C-64.3 31.86 -64.29 29.25 -64.27 26.64 C-64.28 25.88 -64.28 25.12 -64.28 24.34 C-64.22 17.61 -63.42 10.34 -59 5 C-53.73 2.25 -49.47 1.48 -43.56 1.56 C-42.44 1.57 -42.44 1.57 -41.29 1.58 C-34.01 1.8 -29.34 3.6 -24 8.75 C-23.34 9.49 -22.68 10.24 -22 11 C-21.04 10.16 -21.04 10.16 -20.06 9.31 C-14.01 4.74 -8.61 1.63 -1 1 C-0.67 0.67 -0.34 0.34 0 0 Z M18 37 C18.33 37.99 18.66 38.98 19 40 C19.33 39.01 19.66 38.02 20 37 C19.34 37 18.68 37 18 37 Z " fill="#b08e64" transform="translate(669,145)"/>
<path d="M0 0 C4.62 3.25 4.62 3.25 6 6 C6.1 7.34 6.13 8.69 6.14 10.04 C6.15 10.89 6.15 11.73 6.16 12.6 C6.16 13.53 6.16 14.46 6.16 15.42 C6.17 16.89 6.17 16.89 6.18 18.38 C6.19 21.63 6.2 24.87 6.2 28.11 C6.21 30.36 6.21 32.61 6.22 34.86 C6.23 39.58 6.24 44.31 6.24 49.03 C6.25 55.08 6.27 61.13 6.3 67.19 C6.32 71.84 6.32 76.48 6.32 81.13 C6.33 83.36 6.33 85.6 6.35 87.83 C6.36 90.95 6.36 94.07 6.36 97.19 C6.37 98.58 6.37 98.58 6.38 99.99 C6.35 104.82 6.16 108.09 3 112 C-3.06 116.42 -15.94 115.66 -23.14 114.56 C-26.68 113.5 -28.57 111.72 -31 109 C-33.68 103.09 -34.44 98.29 -34.39 91.85 C-34.39 90.97 -34.4 90.09 -34.4 89.19 C-34.42 86.31 -34.41 83.44 -34.4 80.56 C-34.4 78.55 -34.4 76.53 -34.41 74.52 C-34.41 70.32 -34.41 66.11 -34.39 61.9 C-34.37 56.52 -34.38 51.14 -34.4 45.76 C-34.41 41.6 -34.41 37.45 -34.4 33.3 C-34.4 31.32 -34.4 29.33 -34.41 27.35 C-34.42 24.57 -34.4 21.8 -34.39 19.02 C-34.39 18.21 -34.4 17.39 -34.41 16.56 C-34.34 10.34 -33.1 5.68 -29.19 0.69 C-21.11 -5.54 -8.65 -4.33 0 0 Z " fill="#b08e64" transform="translate(1054,150)"/>
<path d="M0 0 C4.5 3.83 6.87 8.15 9.59 13.36 C11.02 16.15 11.02 16.15 13.12 19.19 C15.04 22.06 16.51 24.95 17.97 28.07 C18.97 30.06 18.97 30.06 20.43 31.9 C22.23 34.31 23.63 36.8 25.06 39.44 C25.57 40.36 26.08 41.29 26.6 42.25 C28 45 28 45 29.06 47.79 C29.79 50.16 29.79 50.16 32 51 C32.97 52.8 33.88 54.64 34.75 56.5 C36.68 60.48 38.69 64.22 41.19 67.88 C45.68 74.44 48.21 79.91 48 88 C46.92 93.1 44.3 96.13 40 99 C36.55 100.72 32.57 100.18 28.78 100.21 C27.82 100.22 26.86 100.23 25.88 100.24 C22.71 100.27 19.54 100.29 16.37 100.32 C14.17 100.34 11.98 100.36 9.78 100.38 C4 100.43 -1.78 100.48 -7.57 100.53 C-13.46 100.58 -19.36 100.64 -25.26 100.69 C-36.84 100.8 -48.42 100.9 -60 101 C-59.67 99.68 -59.34 98.36 -59 97 C-58.18 96.81 -57.36 96.61 -56.52 96.41 C-55.44 96.15 -54.36 95.89 -53.25 95.62 C-52.18 95.37 -51.12 95.11 -50.02 94.85 C-47.07 94.12 -47.07 94.12 -44.8 92.9 C-43 92 -43 92 -40 92 C-40 91.34 -40 90.68 -40 90 C-39.4 89.69 -38.79 89.37 -38.17 89.05 C-33.84 86.73 -30.37 84.62 -27 81 C-25.33 80 -23.67 79 -22 78 C-18.92 75.28 -17.08 72.52 -15 69 C-13.46 66.93 -11.89 64.9 -10.3 62.87 C-8.82 60.93 -8.82 60.93 -8 58 C-7.34 58 -6.68 58 -6 58 C-5.85 57.01 -5.85 57.01 -5.69 56 C-5 53 -5 53 -3.62 49.44 C2.65 33.06 2.6 17.17 0 0 Z " fill="#b08e64" transform="translate(276,215)"/>
<path d="M0 0 C0.56 1.94 0.56 1.94 1 4 C0.67 4.33 0.34 4.66 0 5 C-0.21 6.89 -0.37 8.79 -0.5 10.69 C-0.75 14.06 -1.05 17.29 -1.62 20.62 C-2.24 23.01 -2.24 23.01 -1 25 C-0.89 26.87 -0.82 28.75 -0.75 30.62 C0.12 42.51 3.67 53.1 10.55 62.86 C12 65 12 65 13 68 C13.99 68.66 14.98 69.32 16 70 C16 70.66 16 71.32 16 72 C16.66 72 17.32 72 18 72 C18.41 72.74 18.82 73.49 19.25 74.25 C21.35 77.54 23.75 78.91 27 81 C27 81.66 27 82.32 27 83 C28.98 83.5 28.98 83.5 31 84 C31 84.66 31 85.32 31 86 C31.54 86.27 32.09 86.54 32.64 86.82 C34.34 87.67 36.02 88.53 37.7 89.4 C43.07 92.16 48.31 94.63 54.09 96.41 C56.45 97.14 58.72 98.04 61 99 C60.67 99.66 60.34 100.32 60 101 C47.46 100.96 34.91 100.9 22.37 100.82 C16.54 100.78 10.72 100.74 4.9 100.73 C-0.73 100.71 -6.35 100.68 -11.97 100.63 C-14.11 100.62 -16.26 100.61 -18.4 100.61 C-21.41 100.61 -24.41 100.58 -27.41 100.55 C-28.74 100.55 -28.74 100.55 -30.1 100.56 C-35.67 100.47 -38.71 99.63 -43 96 C-44.25 93.88 -44.25 93.88 -45 92 C-45.66 91.34 -46.32 90.68 -47 90 C-47.67 84.34 -47.97 78.86 -45.31 73.75 C-44.55 72.84 -43.79 71.94 -43 71 C-42.1 69.47 -41.22 67.93 -40.38 66.38 C-39.97 65.64 -39.57 64.91 -39.15 64.15 C-38.06 62.12 -37.02 60.07 -36 58 C-35.34 58 -34.68 58 -34 58 C-33.67 56.35 -33.34 54.7 -33 53 C-32.34 53 -31.68 53 -31 53 C-30.69 51.55 -30.69 51.55 -30.38 50.06 C-29.21 45.97 -27.07 42.93 -24.65 39.46 C-21.07 34.11 -18.15 28.34 -15.31 22.56 C-14 20 -14 20 -12.59 18.14 C-10.94 15.92 -9.63 13.67 -8.31 11.25 C-7.88 10.45 -7.44 9.65 -6.99 8.83 C-6.66 8.22 -6.34 7.62 -6 7 C-5.01 7 -4.02 7 -3 7 C-3 6.01 -3 5.02 -3 4 C-2.34 4 -1.68 4 -1 4 C-0.67 2.68 -0.34 1.36 0 0 Z " fill="#b08e64" transform="translate(121,215)"/>
<path d="M0 0 C0 0.66 0 1.32 0 2 C0.66 2 1.32 2 2 2 C4.84 7.02 7.58 12.04 10.01 17.27 C10.93 19.06 10.93 19.06 12.47 20.43 C14.34 22.35 15.24 24.26 16.38 26.69 C18.27 30.59 20.33 34.22 22.68 37.87 C25.32 42.13 27.62 46.59 30 51 C32.13 54.91 34.42 58.64 36.94 62.31 C41.11 68.49 44.29 75.06 47 82 C44.5 80.63 44.5 80.63 42 79 C42 78.34 42 77.68 42 77 C41.34 77 40.68 77 40 77 C40 76.34 40 75.68 40 75 C39.28 74.74 38.57 74.48 37.83 74.21 C34.85 72.94 32.38 71.37 29.69 69.56 C25.17 66.66 21.1 64.58 16 63 C15.11 62.65 14.22 62.3 13.31 61.94 C5.01 59.01 -2.69 58.63 -11.44 58.62 C-13.13 58.62 -13.13 58.62 -14.85 58.62 C-20.63 58.7 -25.55 59.07 -31 61 C-31.99 61.3 -32.97 61.59 -33.99 61.89 C-43 64.76 -50.5 68.91 -58.37 74.08 C-60 75 -60 75 -62 75 C-62 75.66 -62 76.32 -62 77 C-63.88 79.12 -63.88 79.12 -66 81 C-66.66 81 -67.32 81 -68 81 C-66.34 73.97 -63.7 67.95 -59.62 61.98 C-56.73 57.72 -54.15 53.53 -51.92 48.89 C-49.59 44.11 -46.76 39.6 -44 35.06 C-41.43 30.8 -39.16 26.48 -37 22 C-36.34 22 -35.68 22 -35 22 C-34.88 21.43 -34.76 20.85 -34.64 20.26 C-33.73 17.04 -32.12 14.4 -30.45 11.52 C-29.46 9.8 -28.5 8.05 -27.58 6.3 C-25.28 2.08 -23.75 -0.53 -19.62 -3.12 C-11.6 -5.06 -6.95 -4.14 0 0 Z " fill="#b08e64" transform="translate(210,99)"/>
<path d="M0 0 C3.6 5.34 3.45 10.36 3.38 16.56 C3.39 17.5 3.4 18.43 3.41 19.39 C3.37 28.16 3.37 28.16 0 32 C-4.65 36.2 -10.52 35.51 -16.44 35.5 C-17.46 35.53 -18.49 35.56 -19.54 35.59 C-27.95 35.61 -27.95 35.61 -31.64 32.71 C-34.64 29.27 -35.14 27.37 -36 23 C-36.33 23 -36.66 23 -37 23 C-37.61 5.57 -37.61 5.57 -32.12 -1.38 C-24.46 -7.23 -7.71 -5.14 0 0 Z " fill="#b08e64" transform="translate(1057,97)"/>
<path d="M0 0 C3 0.38 3 0.38 6 2.38 C6 3.04 6 3.69 6 4.38 C6.66 4.38 7.32 4.38 8 4.38 C9.38 6.35 10.7 8.35 12 10.38 C12.72 11.26 13.44 12.15 14.19 13.06 C16 15.38 16 15.38 17 18.38 C17.66 18.38 18.32 18.38 19 18.38 C18.9 17.24 18.81 16.11 18.71 14.95 C18.6 13.46 18.49 11.98 18.38 10.5 C18.31 9.75 18.25 9.01 18.18 8.24 C18.04 6.29 18.01 4.33 18 2.38 C18.66 1.71 19.32 1.06 20 0.38 C22.64 0.7 25.28 1.04 28 1.38 C28 13.25 28 25.13 28 37.38 C20 37.38 20 37.38 18.13 36.14 C17.73 35.57 17.33 35 16.92 34.42 C16.46 33.8 16 33.18 15.53 32.54 C15.09 31.89 14.65 31.24 14.19 30.56 C13.27 29.28 12.34 28.01 11.42 26.73 C11.02 26.16 10.63 25.59 10.22 25 C8.81 23.05 8.81 23.05 6 20.38 C5.67 25.99 5.34 31.6 5 37.38 C2.36 37.38 -0.28 37.38 -3 37.38 C-6.28 33.9 -6.38 30.54 -6.4 25.9 C-6.4 24.67 -6.41 23.44 -6.41 22.18 C-6.4 20.9 -6.39 19.63 -6.38 18.31 C-6.39 17.03 -6.4 15.75 -6.41 14.44 C-6.41 13.21 -6.4 11.98 -6.4 10.71 C-6.4 9.59 -6.39 8.47 -6.39 7.32 C-5.79 2.81 -4.63 0.58 0 0 Z " fill="#b08e64" transform="translate(837,279.625)"/>
<path d="M0 0 C4.76 0.48 5.75 1.74 8.75 5.38 C9.22 5.89 9.69 6.41 10.17 6.94 C13.75 10.95 13.75 10.95 13.75 14.38 C14.74 14.05 15.73 13.71 16.75 13.38 C17.08 14.04 17.41 14.69 17.75 15.38 C17.84 13.88 17.84 13.88 17.93 12.35 C18.02 11.06 18.1 9.77 18.19 8.44 C18.27 7.15 18.35 5.86 18.43 4.54 C18.75 1.38 18.75 1.38 19.75 0.38 C22.72 0.7 25.69 1.04 28.75 1.38 C28.75 13.25 28.75 25.13 28.75 37.38 C20.75 37.38 20.75 37.38 18.54 35.8 C18.01 35.1 17.48 34.41 16.94 33.69 C16.37 32.96 15.8 32.23 15.22 31.47 C12.72 27.91 10.64 24.29 8.75 20.38 C8.09 20.7 7.43 21.04 6.75 21.38 C6.44 24.09 6.24 26.71 6.12 29.44 C6.07 30.58 6.07 30.58 6.01 31.74 C5.91 33.62 5.83 35.5 5.75 37.38 C3.11 37.38 0.47 37.38 -2.25 37.38 C-4.63 33.65 -4.49 30.37 -4.48 26.02 C-4.48 25.32 -4.48 24.62 -4.48 23.89 C-4.48 22.41 -4.47 20.93 -4.46 19.46 C-4.44 17.18 -4.44 14.91 -4.44 12.64 C-4.39 0.51 -4.39 0.51 0 0 Z " fill="#b08e64" transform="translate(640.25,279.625)"/>
<path d="M0 0 C0.89 0.01 1.78 0.02 2.7 0.03 C3.38 0.04 4.05 0.05 4.75 0.06 C4.75 0.72 4.75 1.38 4.75 2.06 C5.5 2.15 6.25 2.23 7.02 2.32 C10.32 3.22 11.35 4.37 13.5 7 C14.09 7.71 14.69 8.42 15.3 9.15 C19.22 14.31 18.25 20.86 17.75 27.06 C15.6 31.77 12.15 35.32 7.75 38.06 C4.88 38.65 2.79 38.92 -0.06 38.88 C-0.77 38.87 -1.47 38.86 -2.19 38.86 C-8.11 38.56 -11.48 36.57 -15.65 32.3 C-20.11 26.07 -20 19.48 -19.25 12.06 C-16.97 7.15 -13.56 4.21 -9.25 1.06 C-6.14 0 -3.27 -0.04 0 0 Z M-7.25 14.06 C-9.76 17.82 -9.46 19.64 -8.85 23.96 C-8.38 26.29 -8.38 26.29 -6.06 28.12 C-2.78 29.22 -0.68 29.65 2.75 29.06 C6.03 26.31 7.08 23.61 7.81 19.5 C8.05 17.19 8.05 17.19 7.75 15.06 C5.57 12.57 3.71 11.56 0.81 10.06 C-2.63 10.06 -4.61 12 -7.25 14.06 Z " fill="#b08e64" transform="translate(1025.25,278.9375)"/>
<path d="M0 0 C3.19 -0.12 6.37 -0.19 9.56 -0.25 C10.46 -0.28 11.35 -0.32 12.28 -0.35 C18.41 -0.44 22.05 0.28 27 4 C29.39 7.15 29.27 10.19 29.25 14.06 C29.26 15.11 29.26 16.15 29.27 17.22 C29 20 29 20 27 23 C27.28 26.31 27.28 26.31 29 29 C29.12 32.5 29.12 32.5 29 36 C28 37 28 37 25.19 37.44 C22 37 22 37 19.75 34.25 C16.92 29 16.92 29 16 27 C14.02 27 12.04 27 10 27 C10.01 27.64 10.02 28.28 10.04 28.93 C10.04 29.76 10.05 30.59 10.06 31.44 C10.07 32.26 10.09 33.08 10.1 33.93 C10 36 10 36 9 37 C2.74 37.46 2.74 37.46 0.29 35.94 C-1.7 32.95 -1.35 30.34 -1.33 26.78 C-1.33 26.08 -1.32 25.37 -1.32 24.65 C-1.32 23.17 -1.3 21.69 -1.28 20.21 C-1.25 17.94 -1.24 15.67 -1.23 13.4 C-1.16 2.33 -1.16 2.33 0 0 Z M10 11 C9.83 13.5 9.83 13.5 10 16 C10.33 16.33 10.66 16.66 11 17 C13.34 16.71 15.67 16.38 18 16 C18.38 14.34 18.71 12.68 19 11 C17.82 9.6 17.82 9.6 14.5 9.88 C11.18 9.6 11.18 9.6 10 11 Z " fill="#b08e64" transform="translate(786,280)"/>
<path d="M0 0 C1.21 -0.01 2.42 -0.02 3.67 -0.04 C4.83 -0.04 5.99 -0.04 7.18 -0.04 C8.25 -0.05 9.31 -0.05 10.41 -0.06 C13.12 0.19 13.12 0.19 16.12 2.19 C16.5 5.19 16.5 5.19 16.12 8.19 C12.33 10.72 9.32 10.41 4.94 10.31 C4.19 10.3 3.44 10.29 2.67 10.29 C0.82 10.26 -1.03 10.23 -2.88 10.19 C-2.54 11.18 -2.22 12.17 -1.88 13.19 C-1.19 13.22 -0.5 13.26 0.21 13.3 C1.11 13.37 2.01 13.43 2.94 13.5 C4.28 13.59 4.28 13.59 5.64 13.68 C8.46 14.26 9.47 14.87 11.12 17.19 C10.7 21.61 10.7 21.61 9.12 23.19 C7.11 23.26 5.08 23.27 3.06 23.25 C1.41 23.24 1.41 23.24 -0.29 23.22 C-1.14 23.21 -1.99 23.2 -2.88 23.19 C-2.88 24.18 -2.88 25.17 -2.88 26.19 C-2.01 26.14 -1.14 26.09 -0.24 26.05 C10.35 25.71 10.35 25.71 13.94 27.88 C16.12 30.19 16.12 30.19 16.62 32.81 C16.12 35.19 16.12 35.19 14.12 37.19 C11.42 37.41 11.42 37.41 8.02 37.38 C6.21 37.37 6.21 37.37 4.35 37.36 C3.08 37.35 1.81 37.33 0.5 37.31 C-0.78 37.3 -2.06 37.29 -3.38 37.29 C-6.54 37.26 -9.71 37.23 -12.88 37.19 C-14.06 33.63 -14.02 30.41 -14.01 26.71 C-14.01 25.99 -14.01 25.26 -14.01 24.51 C-14.01 22.98 -14.01 21.45 -14.01 19.92 C-14 17.56 -14.01 15.21 -14.01 12.86 C-14.01 11.37 -14.01 9.89 -14.01 8.4 C-14.01 7.69 -14.01 6.98 -14.01 6.26 C-13.97 -2.68 -7.53 0 0 0 Z " fill="#b08e64" transform="translate(752.875,279.8125)"/>
<path d="M0 0 C3.31 -0.58 5.33 -0.45 8.14 1.45 C13.75 6.26 13.75 6.26 15 10 C18.14 13.46 18.14 13.46 22 16 C22.09 14.39 22.09 14.39 22.18 12.75 C22.27 11.36 22.35 9.96 22.44 8.56 C22.48 7.86 22.52 7.15 22.56 6.42 C22.89 1.11 22.89 1.11 24 0 C26.31 0.33 28.62 0.66 31 1 C31 12.88 31 24.76 31 37 C24 37 24 37 21.56 35.19 C20 33 20 33 20 30 C19.01 29.67 18.02 29.34 17 29 C15.44 26.62 15.44 26.62 14 24 C13.34 23.01 12.68 22.02 12 21 C11.01 21 10.02 21 9 21 C8.67 26.28 8.34 31.56 8 37 C5.69 37 3.38 37 1 37 C-1.32 33.33 -1.24 30.18 -1.23 25.9 C-1.23 25.22 -1.23 24.54 -1.23 23.84 C-1.23 22.42 -1.22 20.99 -1.21 19.56 C-1.19 17.38 -1.19 15.19 -1.19 13 C-1.15 2.3 -1.15 2.3 0 0 Z " fill="#b08e64" transform="translate(1061,280)"/>
<path d="M0 0 C3.29 -0.3 3.29 -0.3 7 0 C8.9 1.96 8.9 1.96 10.38 4.81 C10.94 5.89 11.5 6.97 12.09 8.09 C12.72 9.39 13.36 10.7 14 12 C14.83 13.62 15.65 15.23 16.48 16.85 C17.32 18.55 18.16 20.24 19 21.94 C19.41 22.75 19.82 23.57 20.24 24.41 C23.05 30.27 23.05 30.27 22.81 34 C22 36 22 36 21 37 C18.12 37.31 18.12 37.31 15 37 C13.12 35.12 13.12 35.12 12 33 C12 32.34 12 31.68 12 31 C7.29 30.66 2.7 30.44 -2 31 C-4.5 33.87 -4.5 33.87 -6 37 C-9.75 37.38 -9.75 37.38 -13 37 C-16.23 24.08 -5.98 11 0 0 Z M3 18 C3 18.99 3 19.98 3 21 C3.66 21 4.32 21 5 21 C5 20.01 5 19.02 5 18 C4.34 18 3.68 18 3 18 Z " fill="#b08e64" transform="translate(1125,280)"/>
<path d="M0 0 C3.58 0.24 5.48 0.51 8.12 3 C9.99 5.98 11.37 8.89 12.72 12.13 C13.76 14.46 14.86 16.7 16.03 18.96 C16.4 19.67 16.76 20.37 17.13 21.1 C17.87 22.51 18.61 23.92 19.36 25.33 C21.25 28.99 22.61 31.76 22 36 C20.11 37.89 17.43 37.24 14.91 37.33 C14.28 37.22 13.65 37.11 13 37 C11 34 11 34 11 31 C6.38 31 1.76 31 -3 31 C-3.99 32.98 -4.98 34.96 -6 37 C-8.64 37 -11.28 37 -14 37 C-16.36 31.36 -16.36 31.36 -15.45 27.89 C-14.47 25.64 -13.4 23.48 -12.25 21.31 C-11.88 20.57 -11.5 19.82 -11.12 19.05 C-10.1 17.02 -9.05 15.01 -8 13 C-7.33 11.67 -6.66 10.33 -6 9 C-5.34 9 -4.68 9 -4 9 C-3.9 8.44 -3.79 7.89 -3.69 7.31 C-2.87 4.56 -1.54 2.41 0 0 Z M3 18 C3 18.99 3 19.98 3 21 C3.66 20.34 4.32 19.68 5 19 C4.34 18.67 3.68 18.34 3 18 Z " fill="#b08e64" transform="translate(898,280)"/>
<path d="M0 0 C4.95 -0.05 9.9 -0.09 14.84 -0.11 C16.53 -0.12 18.21 -0.13 19.9 -0.15 C22.31 -0.18 24.73 -0.19 27.15 -0.2 C27.9 -0.21 28.66 -0.22 29.44 -0.23 C31.29 -0.23 33.15 -0.12 35 0 C35.66 0.66 36.32 1.32 37 2 C36.62 5.12 36.62 5.12 36 8 C35.15 8.06 34.29 8.12 33.41 8.18 C31.75 8.31 31.75 8.31 30.06 8.44 C28.96 8.52 27.86 8.6 26.72 8.68 C24.09 8.7 24.09 8.7 23 10 C22.84 12 22.75 14 22.68 16 C22.64 17.22 22.6 18.43 22.56 19.69 C22.52 20.96 22.48 22.24 22.44 23.56 C22.39 24.85 22.35 26.13 22.31 27.45 C22.2 30.63 22.1 33.82 22 37 C19.69 37 17.38 37 15 37 C14.34 35.35 13.68 33.7 13 32 C12.67 32 12.34 32 12 32 C11.67 24.41 11.34 16.82 11 9 C8.03 8.67 5.06 8.34 2 8 C-0.15 4.77 -0.2 3.72 0 0 Z " fill="#b08e64" transform="translate(686,280)"/>
<path d="M0 0 C4.64 -0.02 9.29 -0.04 13.93 -0.05 C15.51 -0.06 17.09 -0.07 18.67 -0.08 C20.95 -0.09 23.22 -0.09 25.49 -0.1 C26.19 -0.1 26.9 -0.11 27.63 -0.11 C30.7 -0.11 33.06 0.02 36 1 C37.18 3.94 37.03 4.9 36 8 C35.15 8.06 34.29 8.12 33.41 8.18 C32.31 8.27 31.2 8.35 30.06 8.44 C28.96 8.52 27.86 8.6 26.72 8.68 C24.09 8.7 24.09 8.7 23 10 C22.84 12 22.75 14 22.68 16 C22.64 17.22 22.6 18.43 22.56 19.69 C22.52 20.96 22.48 22.24 22.44 23.56 C22.39 24.85 22.35 26.13 22.31 27.45 C22.2 30.63 22.1 33.82 22 37 C18.69 37.25 18.69 37.25 15 37 C11.94 34.01 11.6 31.54 11.49 27.36 C11.45 26.29 11.42 25.22 11.38 24.12 C11.36 23.01 11.34 21.89 11.31 20.75 C11.28 19.62 11.24 18.5 11.21 17.34 C11.13 14.56 11.06 11.78 11 9 C10.37 8.96 9.75 8.92 9.11 8.88 C8.29 8.82 7.47 8.75 6.63 8.68 C5.82 8.62 5.01 8.57 4.18 8.51 C2 8 2 8 -0.12 5.06 C-1 2 -1 2 0 0 Z " fill="#b08e64" transform="translate(926,280)"/>
<path d="M0 0 C2.97 0.33 5.94 0.66 9 1 C9.33 9.58 9.66 18.16 10 27 C13.96 27.33 17.92 27.66 22 28 C23.65 28.99 25.3 29.98 27 31 C27.31 34.19 27.31 34.19 27 37 C22.9 37.12 18.79 37.19 14.69 37.25 C13.52 37.28 12.35 37.32 11.15 37.35 C10.03 37.36 8.91 37.38 7.76 37.39 C6.73 37.41 5.7 37.43 4.64 37.45 C2 37 2 37 0.16 35.44 C-1.44 32.07 -1.35 29.37 -1.33 25.64 C-1.33 24.94 -1.32 24.24 -1.32 23.52 C-1.32 22.04 -1.3 20.56 -1.28 19.08 C-1.25 16.81 -1.24 14.54 -1.23 12.27 C-1.16 1.16 -1.16 1.16 0 0 Z " fill="#b08e64" transform="translate(1165,280)"/>
<path d="M0 0 C3.12 0.19 3.12 0.19 6.12 2.19 C6.4 4.8 6.5 7.17 6.45 9.79 C6.45 10.91 6.45 10.91 6.45 12.06 C6.44 13.64 6.43 15.23 6.41 16.81 C6.38 19.24 6.37 21.68 6.36 24.11 C6.35 25.65 6.34 27.19 6.33 28.72 C6.32 29.82 6.32 29.82 6.32 30.94 C6.24 36.07 6.24 36.07 5.12 37.19 C2.45 37.33 -0.2 37.23 -2.88 37.19 C-4.06 33.63 -4.02 30.41 -4.01 26.71 C-4.01 25.99 -4.01 25.26 -4.01 24.51 C-4.01 22.98 -4.01 21.45 -4.01 19.92 C-4 17.56 -4.01 15.21 -4.01 12.86 C-4.01 11.37 -4.01 9.89 -4.01 8.4 C-4.01 7.69 -4.01 6.98 -4.01 6.26 C-3.98 0.26 -3.98 0.26 0 0 Z " fill="#b08e64" transform="translate(982.875,279.8125)"/>
<path d="M0 0 C2.64 0.33 5.28 0.66 8 1 C8 12.88 8 24.76 8 37 C5.36 37 2.72 37 0 37 C-1.97 35.03 -1.3 31.24 -1.39 28.54 C-1.41 27.79 -1.44 27.04 -1.46 26.27 C-1.52 24.68 -1.57 23.09 -1.61 21.51 C-1.69 19.08 -1.78 16.64 -1.87 14.21 C-1.92 12.67 -1.97 11.14 -2.01 9.6 C-2.04 8.87 -2.07 8.14 -2.1 7.38 C-2.14 5.59 -2.08 3.79 -2 2 C-1.34 1.34 -0.68 0.68 0 0 Z " fill="#b08e64" transform="translate(610,280)"/>
<path d="M0 0 C0.33 0 0.66 0 1 0 C1 29.04 1 58.08 1 88 C0.67 88 0.34 88 0 88 C0 58.96 0 29.92 0 0 Z " fill="#b08e64" transform="translate(1061,163)"/>
<path d="M0 0 C0.33 0 0.66 0 1 0 C1 29.04 1 58.08 1 88 C0.67 88 0.34 88 0 88 C0 58.96 0 29.92 0 0 Z " fill="#b08e64" transform="translate(816,163)"/>
<path d="M0 0 C0.33 0 0.66 0 1 0 C1 26.73 1 53.46 1 81 C0.67 81 0.34 81 0 81 C0 54.27 0 27.54 0 0 Z " fill="#b08e64" transform="translate(831,164)"/>
<path d="M0 0 C0.33 0 0.66 0 1 0 C1 16.5 1 33 1 50 C0.67 50 0.34 50 0 50 C0 33.5 0 17 0 0 Z " fill="#b08e64" transform="translate(389,255)"/>
<path d="M0 0 C0.33 0 0.66 0 1 0 C1 11.22 1 22.44 1 34 C0.67 34 0.34 34 0 34 C0 22.78 0 11.56 0 0 Z " fill="#b08e64" transform="translate(1093,282)"/>
<path d="M0 0 C0.33 0 0.66 0 1 0 C1 9.9 1 19.8 1 30 C0.67 30 0.34 30 0 30 C0 20.1 0 10.2 0 0 Z " fill="#b08e64" transform="translate(670,284)"/>
<path d="M0 0 C0.33 0 0.66 0 1 0 C1 8.91 1 17.82 1 27 C0.67 27 0.34 27 0 27 C0 18.09 0 9.18 0 0 Z " fill="#b08e64" transform="translate(607,284)"/>
<path d="M0 0 C0.33 0 0.66 0 1 0 C1 8.58 1 17.16 1 26 C0.67 26 0.34 26 0 26 C0 17.42 0 8.84 0 0 Z " fill="#b08e64" transform="translate(949,290)"/>
<path d="M0 0 C0.33 0 0.66 0 1 0 C1 8.58 1 17.16 1 26 C0.67 26 0.34 26 0 26 C0 17.42 0 8.84 0 0 Z " fill="#b08e64" transform="translate(709,290)"/>
<path d="M0 0 C0.33 0 0.66 0 1 0 C1 4.95 1 9.9 1 15 C0.67 15 0.34 15 0 15 C0 10.05 0 5.1 0 0 Z " fill="#b08e64" transform="translate(1070,301)"/>
<path d="M0 0 C0.33 0 0.66 0 1 0 C1 3.63 1 7.26 1 11 C0.67 11 0.34 11 0 11 C0 7.37 0 3.74 0 0 Z " fill="#b08e64" transform="translate(854,284)"/>
<path d="M0 0 C3.63 0 7.26 0 11 0 C11 0.33 11 0.66 11 1 C7.37 1 3.74 1 0 1 C0 0.67 0 0.34 0 0 Z " fill="#b08e64" transform="translate(1036,133)"/>
<path d="M0 0 C0.33 0 0.66 0 1 0 C1 3.63 1 7.26 1 11 C0.67 11 0.34 11 0 11 C0 7.37 0 3.74 0 0 Z " fill="#b08e64" transform="translate(1061,108)"/>
<path d="M0 0 C0.33 0 0.66 0 1 0 C1 3.3 1 6.6 1 10 C0.67 10 0.34 10 0 10 C0 6.7 0 3.4 0 0 Z " fill="#b08e64" transform="translate(696,200)"/>
<path d="M0 0 C4 1 4 1 4 1 Z " fill="#b08e64" transform="translate(798,307)"/>
<path d="M0 0 C4 1 4 1 4 1 Z " fill="#b08e64" transform="translate(1022,278)"/>
<path d="M0 0 C1 4 1 4 1 4 Z " fill="#b08e64" transform="translate(119,234)"/>
<path d="M0 0 C2 1 2 1 2 1 Z " fill="#b08e64" transform="translate(380,314)"/>
<path d="" fill="#b08e64" transform="translate(0,0)"/>
<path d="M0 0 C2 1 2 1 2 1 Z " fill="#b08e64" transform="translate(888,188)"/>
<path d="M0 0 C2 1 2 1 2 1 Z " fill="#b08e64" transform="translate(682,188)"/>
<path d="M0 0 C2 1 2 1 2 1 Z " fill="#b08e64" transform="translate(674,188)"/>
<path d="" fill="#b08e64" transform="translate(0,0)"/>
<path d="" fill="#b08e64" transform="translate(0,0)"/>
<path d="" fill="#b08e64" transform="translate(0,0)"/>
<path d="" fill="#b08e64" transform="translate(0,0)"/>
<path d="" fill="#b08e64" transform="translate(0,0)"/>
<path d="" fill="#b08e64" transform="translate(0,0)"/>
<path d="" fill="#b08e64" transform="translate(0,0)"/>
<path d="" fill="#b08e64" transform="translate(0,0)"/>
<path d="" fill="#b08e64" transform="translate(0,0)"/>
<path d="" fill="#b08e64" transform="translate(0,0)"/>
<path d="" fill="#b08e64" transform="translate(0,0)"/>
<path d="" fill="#b08e64" transform="translate(0,0)"/>
<path d="" fill="#b08e64" transform="translate(0,0)"/>
<path d="" fill="#b08e64" transform="translate(0,0)"/>
<path d="" fill="#b08e64" transform="translate(0,0)"/>
<path d="" fill="#b08e64" transform="translate(0,0)"/>
<path d="" fill="#b08e64" transform="translate(0,0)"/>
<path d="" fill="#b08e64" transform="translate(0,0)"/>
<path d="" fill="#b08e64" transform="translate(0,0)"/>
<path d="" fill="#b08e64" transform="translate(0,0)"/>
<path d="" fill="#b08e64" transform="translate(0,0)"/>
<path d="" fill="#b08e64" transform="translate(0,0)"/>
<path d="" fill="#b08e64" transform="translate(0,0)"/>
<path d="" fill="#b08e64" transform="translate(0,0)"/>
</svg>
